<?xml version='1.0' encoding='utf-8'?>
<svg xmlns="http://www.w3.org/2000/svg" version="1.1" id="Layer_1" x="0px" y="0px" viewBox="0 0 5000 4041.8391" enable-background="new 0 0 5000 4041.8391"> <g> <path d="M4939.04,2738.5339c-78.2891-7.2036-128.3105-14.5679-133.3784-19.6357c-12.2559-12.2556,54.0435-36.6951,7.7236-52.8433 c-23.2212-8.0952-22.3765-16.2666,3.2422-31.3828c25.3901-14.9797,24.6978-29.0212-1.8052-36.6221 c-21.6973-6.2227-24.8638-18.0461-7.3452-27.4214c32.7783-17.5415-33.0762-48.249,108.2256-155.3586 c18.3418-13.9036,21.7686-20.02,21.7686-38.8545c0-15.6152-4.0078-26.043-13.2949-34.594 c-11.7324-10.8013-23.9165-12.7388-103.6641-16.4829c-89.4775-4.2024-107.5762-8.8669-107.5762-27.7222 c0-6.7815-22.6719-28.3381-29.8032-28.3381c-2.3984,0-15.874,5.1558-29.9482,11.4563 c-35.2417,15.7783-43.2964,8.6135-38.2817-34.053c12.9448-110.1389,130.0112-119.9863,104.1768-198.2695 c-13.6284-41.2955-48.0566-52.1567-84.0605-26.5199c-12.6147,8.9823-29.9497,14.1973-52.6514,15.8396 c-32.7539,2.3694-43.2148-0.5907-99.877-28.2595c-4.8745-2.381-9.6812-12.5044-10.6816-22.4965 c-2.6455-26.4296-12.5737-31.4656-67.2632-34.1185c-90.2813-4.3796-138.5063-12.5116-255.9033-43.1506 c-84.3398-22.0117-179.7439-60.6606-211.2405-85.5763c-17.5317-13.8698-11.7261-25.0238,24.7432-47.5339 c65.0415-40.1469,40.322-70.1766,90.4934-96.7837c25.1609-13.3433,46.6738-44.2773,54.8101-78.8121 c5.4629-23.1831,67.7837-78.1531,67.7837-96.8342c0-13.618-29.5151-43.9246-53.1797-54.6062 c-24.0508-10.8574-53.4202-9.1882-67.3152-24.5413c-10.575-11.6849-43.644-27.2013-70.1211-32.8995 c-31.4832-6.7793-12.7781-43.9706-50.4207-73.6086c-10.7061-8.4298-24.7461-27.1422-31.2002-41.584 c-11.1772-25.0087-11.2356-26.5334-1.2205-32.0787c23.5872-13.0604,43.7515-41.0488,42.78-59.3783 c-1.4333-27.0485-0.363-32.9602,5.9692-32.9602c10.8374,0,59.1677-37.6666,62.7288-48.8877 c1.9626-6.1758,1.8955-20.1378-0.1479-31.0265c-3.2197-17.1638-9.6731-23.1888-48.5024-45.2798 c-112.4258-63.9603-55.9019-67.7011-175.9688-72.759c-14.3975-116.4685-7.0195-106.8049-63.3699-163.67 c-11.9165-12.0247-23.4175-29.8348-25.5569-39.5759c-5.4285-24.7158-36.6021-53.7817-57.6812-53.7817 c-34.1309,0-65.7603,25.5179-81.5925,65.8287c-10.6643,27.1528-30.0527,35.906-54.3567,50.5749 c-14.3643-14.3643-48.2251-51.4066-64.7-51.4066c-19.8711,0-65.1367,58.7702-97.1357,81.3257 c-68.0093,47.938-21.5898,180.02-52.3745,214.1605c-10.5344,11.6827-15.6189,12.7098-46.8357,9.4662 c-36.1157-3.7537-88.7419-28.2595-100.4111-46.7592c-4.6501-7.3716-2.5273-13.4059,9.1655-26.0574 c37.2961-40.3517,19.2246-69.9741,43.292-175.4285c11.7952-51.6871,7.8982-71.6265-20.1055-102.878 c-20.2004-22.5425-22.8843-29.3833-26.5845-67.7438c-2.2634-23.4687-8.0425-48.75-12.842-56.1808 c-7.4358-11.5111-11.9641-12.9378-30.6072-9.6393c-69.2681,12.2548-108.458,27.4834-161.9397,62.9256 c-50.4927,33.4622-64.1519,55.1616-78.5669,124.8139c-4.5552,22.0102-3.4199,14.0676-65.2263,1.2825 c-61.9729-12.8169-53.1582-30.2823-88.0498-23.7371c-19.5339,3.6649-23.7261,1.7311-50.4602-23.2754 c-16.0364-15-31.4663-27.2728-34.2888-27.2728c-8.4246,0-28.1064,24.6386-45.0093,56.3466 c-20.74,38.903-32.6731,46.2616-62.1523,38.3237c-22.8801-6.1613-98.6887-57.2006-135.4407-91.1887 c-26.6951-24.687-53.6836-79.6689-60.7581-123.7753c-10.5916-66.0351-9.8882-64.48-27.6104-61.0495 c-8.7883,1.7015-34.5911,9.8492-57.3398,18.1066c-50.5166,18.3367-56.491,18.6295-75.4734,3.6981 c-8.2622-6.4996-21.5046-11.8177-29.425-11.8177c-19.7693,0-27.2-9.7187-72.2864-94.5413 c-21.5935-40.6232-43.0339-77.7121-47.6451-82.42c-8.9907-9.1788,4.9023-15.8057-407.4156,101.61 c-257.849,73.4249-182.0596,47.4487-525.1832,147.2778c-151.0856,43.9592-163.476,46.3676-187.1985,36.3928 c-27.7972-11.6878-30.1832-17.3492-26.1721-62.1033c3.8792-43.2805-6.387-201.8516-15.2935-236.2306 c-3.08-11.8869-16.1988-34.4388-29.1539-50.1161c-28.3504-34.3076-29.3876-49.4143-5.8281-84.855 c9.7216-14.6242,17.6262-33.2372,17.5613-41.3618c-0.1753-22.8361-22.1689-100.396-36.861-129.9942 c-27.3103-55.0152-75.1479-31.0531-96.2457,48.2098c-35.2268,132.3501,72.4113,132.9802-21.6489,212.2945 c-44.0479,37.1422-51.5637,59.0508-58.1679,169.5636c-3.0518,51.0755-6.6229,97.5007-7.9349,103.1665 c-3.1993,13.8099,22.6489,44.6708,36.1757,63.292c11.8788,16.3538,11.1455,42.618,14.6667,205.2056l-29.6927,21.796 c-28.0771,20.6102-54.5348,60.2683-53.9794,80.9117c0.6692,24.8506,100.605,22.4339,35.9435,206.928 c-30.4948,87.0088-31.4296,144.1569-3.0439,185.9854c14.2477,20.9961,14.4424,22.5223,5.3253,41.7354 c-8.7125,18.3627-11.6041,19.943-36.4707,19.943c-23.494,0-29.9921,2.9847-49.9481,22.9408 c-19.3076,19.3075-22.94,26.8385-22.94,47.5635c0,13.543,4.1294,32.6096,9.177,42.3701 c12.6538,24.4711,5.5363,23.4436-27.7762,162.2324c-9.6718,40.2921-14.0529,49.1663-28.4803,57.689 c-9.3775,5.5396-22.9133,19.5586-30.0793,31.1534c-10.8035,17.4805-12.5014,26.8905-9.9437,55.0995 c9.8292,108.4553,42.3597-42.6744-39.5499,277.0464c-23.3136,90.9968-28.5019,104.8081-47.1184,125.4141 c-11.5061,12.7366-22.4784,30.5359-24.3811,39.5549c-6.2206,29.4851-9.7477,33.4707-2.3204,72.5317 c10.0143,52.667-17.4436,108.4917-228.7291,953.1738c-52.6809,23.2495-89.1277,34.3723-81.5659,98.592 c4.8781,41.4316,11.5674,53.2156,57.9537,102.0967c20.9023,22.0261,42.0276,48.616,46.9453,59.0884 c14.1766,30.1853,13.2509,152.1245,24.0313,151.7822c75.942-2.3643,443.5467,7.0342,459.449,11.7471 c24.912,7.3845,38.4225,31.7327,31.9396,57.5627c-2.2548,8.981-27.6616,39.8572-57.2267,69.5435 c-71.0646,71.3538-63.0374,79.8159-106.1656,164.1006c-5.7234,11.1868-4.6606,31.6096-5.2517,31.0186 c0,17.6167,2.0139,20.7507,13.2949,20.6743c14.0241-0.0923,16.9302-1.5212,75.6297-37.2107 c84.0118-51.0813,165.9146-54.8499,226.346-63.5215c55.5402-7.968,170.7357-7.854,207.7849,0.207 c95.0491,20.6851,104.3282,48.1992,172.9782,26.0271c25.7574-8.3186,44.4468-8.8748,141.0127-4.1929 c332.7117,16.1323,519.3564-22.8591,678.5676-36.2673c190.6074-16.0522,278.7456-30.6968,457.9343-76.0891 c157.8491-39.9858,168.3218-37.3943,177.7776-48.7883c11.3474-13.6719,55.9104-34.1748,105.8469-48.6973 c174.4275-50.7249,138.5591-68.125,564.2932,13.9629c11.4587,2.209,455.6755,80.0581,469.5464,75.0381 c4.9878-1.8062,26.5276-19.6074,47.8672-39.5593c55.8301-52.1992,618.0073-498.5874,705.7148-572.9956 c84.3857-71.592,98.9414-75.3884,159.5381-127.1262c69.6563-59.4727,206.6182-167.9929,218.7642-185.4395 c4.8657-6.9893,35.5586-39.5693,68.2065-72.3997c53.0918-53.3894,58.9414-61.3604,55.394-75.4934 C4994.0762,2749.0188,4981.1558,2742.4087,4939.04,2738.5339z M4846.9917,2763.4221c3.9976,10.417-3.0693,17.1582-58.0898,55.4133 c-28.7749,20.0078-283.7715,218.6294-279.3013,214.1589c-52.6235,41.2083-68.4707,47.8716-68.4707,28.7883 c0-13.0547,57.7871-65.5525,127.6255-115.9434C4765.2397,2804.0676,4832.875,2726.6328,4846.9917,2763.4221z M4454.0137,3112.8674 c1.1724-8.1931,16.4404-23.9568,40.2954-41.6055c229.9761-170.1436,259.9888-219.1189,259.9888-191.3086 c0,17.4028-34.7832,58.0864-77.5098,90.6602c-24.7554,18.8733-64.2549,50.2683-87.7769,69.7678 C4551.3286,3071.6194,4447.5513,3158.012,4454.0137,3112.8674z M4734.4331,2631.1956 c14.0879-10.562,31.0503-19.2036,37.6963-19.2036c16.2002,0,22.7632,18.0559,9.5283,26.2124 c-17.5239,10.7986-167.3853,127.417-178.8228,127.417c-15.2041,0-8.0864-21.2283,14.0811-41.9973 C4637.0278,2704.7825,4652.1978,2692.8508,4734.4331,2631.1956z M4624.3013,2650.1257c0-21.4128,109.6572-97.7524,142.6406-99.3018 c28.3589-1.332,26.4966,10.8145-4.9365,32.2058c-18.1641,12.3601-75.5161,57.2512-77.0483,57.2512 C4632.8096,2677.8538,4624.3013,2679.2344,4624.3013,2650.1257z M4636.1211,2771.3008 c68.1729-47.9663,122.375-94.3125,133.7378-94.3125c15.5747,0,16.5479,18.5098,1.5845,30.137 c-9.0459,7.0298-202.4629,158.9456-212.1177,158.9456c-3.2603,0-5.9282-6.126-5.9282-13.613 C4553.3975,2835.9878,4576.7661,2813.0623,4636.1211,2771.3008z M4756.4536,2744.6042 c15.4917-10.4746,24.7715-13.5076,28.8516-9.4272c17.3657,17.366-18.3706,34.4199-188.3828,167.5173 c-19.9341,15.606-40.541,28.3743-45.7935,28.3743c-12.6631,0-12.1885-15.7148,0.7915-26.1785 C4563.8965,2895.2334,4678.0347,2797.6289,4756.4536,2744.6042z M4737.8369,2345.6624c24.998-1.4224,96.5854,1.7983,99.1182,4.46 c1.6611,1.7454-3.3398,7.4458-11.1123,12.6672c-17.04,11.4485-56.3545,43.6707-56.9478,43.6707 c-42.3311,33.7905-50.2456,37.9211-57.9307,30.2366C4698.7041,2424.4363,4721.6851,2346.582,4737.8369,2345.6624z M4783.8403,2423.3018c5.5337-6.2651,61.085-50.5801,76.3618-60.9167c35.9282-24.3105,72.8335-1.6821,49.3247,30.2429 c-16.2666,22.0901-55.9541,36.2385-52.1616,46.2305c1.4775,3.8958-2.6699,8.7839-9.2183,10.8621 c-22.5264,7.1482-137.8467,115.0029-171.4375,115.0029c-19.9883,0-32.2061-17.9949-23.3965-34.4575 C4669.3833,2500.2397,4779.9575,2427.6963,4783.8403,2423.3018z M4690.4531,2325.4128 c43.6523,0-68.9243,192.2722-219.6265,575.6348c-14.9941,38.1467-88.7861,203.678-88.7861,212.9878 c0,12.7742-172.1553,14.6394-1113.8149,24.6335c-51.8955-29.4282-81.7925-45.0764-78.4888-54.7261 c5.0664-14.7996,1031.8667-11.0752,1171.0957-25.8352C4682.605,2336.0818,4681.0693,2325.4128,4690.4531,2325.4128z M3718.0952,3659.6377c-53.7507,40.6101-57.0305,41.7996-92.3826,33.5005c-11.3748-2.6704-59.2361-10.4727-106.3589-17.3386 c-115.8625-16.8816-122.675-23.8552-144.2239-23.8552c-4.6702,0-346.209-52.991-346.209-59.6147 c0-2.6992,10.2085-7.9668,22.686-11.7053c31.3982-9.4063,60.3245,1.1626,234.3481,27.0862 c337.605,50.2981,336.3992,64.0083,358.7832,48.0256c485.1465-346.3511,690.0332-530.7456,690.0332-487.572 C4334.7715,3207.3867,3717.5042,3660.2288,3718.0952,3659.6377z M4197.0459,3352.0776 c-192.0291,141.0415-461.6462,370.7734-482.418,370.7734c-8.8042,0-18.01-10.5793-18.01-20.6975 c0-2.8181,135.2549-103.0151,466.7126-355.9905c39.3867-30.0613,75.4614-54.6565,80.165-54.6565 C4265.4648,3291.5066,4247.3467,3315.1331,4197.0459,3352.0776z M2444.6782,3736.0356 c-15.1094-28.231-1.824-47.052-33.8474-65.9458c-20.7075-12.2166-23.4355-20.7595-20.4536-64.0054 c3.0813-44.7126-45.9609-38.4629-21.1953-97.6189c8.0981-19.343,52.0161-63.3303,63.2314-63.3303 c11.7637,0,34.2305,28.1621,40.644,50.9478c16.1167,57.2539,4.3232,176.1326,41.6123,103.0388 c15.0962-29.5923,16.9443-89.2258,19.7517-125.7515l22.4373,3.0093c32.0198,4.2952,56.8379,24.0708,65.189,51.9453 c6.3359,21.1438,5.7561,25.2488-5.7603,40.8259c-8.3286,11.2659-12.8027,25.9512-12.8027,42.0225 c0,46.0652-37.8022,97.6038-49.408,67.3608c-6.429-16.7537-19.9077-8.8237-30.0229,17.6628 c-7.8618,20.5847-25.2354,40.479-25.2354,38.406C2479.9805,3749.4214,2452.2351,3750.1555,2444.6782,3736.0356z M2021.1619,3761.9019c-66.9656,4.0039-67.6486,3.9136-67.6486-8.9412c0-32.6919,89.578-86.2126,158.1002-94.4619 c28.3525-3.4131,40.9917-7.7151,45.4658-15.4731c19.7793-34.2961,36.4304-46.0547,69.0515-48.7595 c41.6733-3.4563,104.8125,12.0789,119.2058,29.3301c19.281,23.1094-0.1399,59.6284-43.2024,81.239 C2276.2583,3717.822,2163.0291,3753.4229,2021.1619,3761.9019z M2187.9954,3512.2625 c9.1714-13.9968,12.2837-14.8904,39.8848-11.4526c40.0654,4.9897,94.0542,16.2666,98.6194,20.5986 c2.0269,1.9229,5.0974,14.7974,6.8242,28.6094c3.6936,29.5542,10.7002,28.615-85.8462,11.5024 C2171.6899,3548.0876,2167.0432,3544.2395,2187.9954,3512.2625z M2274.0667,3479.2373 c-29.5723-3.9187-42.8391-8.1846-42.8391-13.7725c0-19.875,40.3181-25.5408,95.5676-13.4304 c38.7256,8.489,43.7637,12.4641,31.4297,24.7981C2347.6428,3487.4146,2337.8857,3487.6938,2274.0667,3479.2373z M2326.405,3400.491 c29.4402-15.2251,63.6526-0.0852,64.1726,28.3958c0.2078,11.439-4.4114,11.6575-51.5139,2.438 C2303.4714,3424.3584,2299.4048,3414.4529,2326.405,3400.491z M2498.8862,3474.6809c17.6992,0,23.6807,16.5464,19.7114,54.5239 c-5.1982,49.728-13.6338,55.5222-18.3777,12.6226C2494.0146,3485.7214,2487.3376,3474.6809,2498.8862,3474.6809z M2576.012,3443.3291c-17.6155-9.179-19.3955-9.0737-33.4304,1.9656c-19.9849,15.72-25.5425,14.9944-72.6855-9.4907 c-45.616-23.6917-64.4583-39.1526-76.9287-63.1233c-8.0879-15.5474-7.7617-16.6003,6.8552-22.158 c26.6736-10.1404,35.6357,0.5417,60.771-20.6074c51.6428-43.4531,142.8904,23.6829,142.8904-5.4761 c0-12.0723-81.0247-56.5681-171.6448-56.5681c-45.2126,0-49.9429-4.8579-29.738-30.5437 c13.8633-17.6248,101.5479-59.749,114.2361-54.8804c5.0427,1.9353,10.6052,9.0154,12.3616,15.7344 c2.8396,10.8582,6.3523,11.835,31.6042,8.7881c19.8586-2.3953,47.5251,1.0732,91.9287,11.5264 c58.5278,13.7781,63.5198,16.0466,63.5198,28.8611c0,7.6492-2.6587,15.5518-5.9087,17.5598 c-9.7021,5.9961-6.7197,24.0249,5.8555,35.4053c32.3601,29.2847,51.5117,90.1768,36.0452,114.5999 c-2.9148,4.6025-19.0574,9.4438-36.8394,11.0474c-29.0403,2.6196-35.6978,8.0042-47.5693,19.8757 c-8.7537,9.3604-20.719,16.7456-26.5896,16.4146C2622.114,3461.2043,2595.2285,3453.3416,2576.012,3443.3291z M2267.4133,3132.5459 c-6.6206-4.1936-4.9761-11.5862,8.856-39.7944c15.5498-31.7131,17.0371-40.3916,17.604-102.5952 c1.1802-130.1116,21.6675-180.9329-18.8547-159.2659c-25.4087,13.5859-37.0769,46.7056-44.4639,46.9246 c-1.9958,0.0396-10.875-10.3831-19.731-23.1628c-14.9988-21.6426-15.5786-24.6855-8.4624-44.3647 c9.0657-25.0698,29.0242-41.6157,39.7578-51.8992c17.6006,28.1865,19.2634,34.874,36.3792,1.3245 c16.9863-33.2971,30.6821-31.323,46.4822,6.697c22.7668,54.7751,2.5347,66.5825,27.0693,75.9089 c23.9397,9.1021,34.4929,31.8386,35.1602,75.7544c1.0701,70.3711-18.5029,69.2883,5.9341,75.4214 c35.4197,8.8892,2.3081,71.3618-64.7671,122.1948C2299.2583,3137.7563,2282.8174,3142.3027,2267.4133,3132.5459z M2091.6804,3036.145c21.0098,41.5789,49.7961,141.4019,45.0015,140.4429c0,12.428-2.7488,14.467-19.5029,14.467 c-17.1892,0-20.999-3.0776-32.1033-25.9341c-17.5627-36.1489-45.9752-66.8054-69.9518-75.4753 c-49.7854-18.0029-46.2775-119.4373-46.8414-167.4424c23.0906-6.8125,13.7202-4.0479,36.6021-10.7991 c-1.2571-103.0813-6.4042-115.686,51.9028-95.8677c18.0566,6.1382,35.7688,14.7007,39.3608,19.0291 c7.321,8.8213,28.719,10.7529,28.719,2.5923c0-21.7102,63.6877-12.6521,97.2859,104.0408 c11.3501,39.4187,15.2717,46.2983,27.4082,48.075c18.0454,2.6414,22.824,10.4031,22.9365,37.2612 c0.093,22.259-30.9126,99.5239-39.9373,99.5239c-2.7878,0-11.2637-15.2893-18.8359-33.9758 c-16.3083-40.2451-29.5513-56.3906-64.9011-79.1243c-26.3345-16.936-71.2263-23.7356-71.2263-10.7891 C2077.5972,3005.5276,2083.9346,3020.8162,2091.6804,3036.145z M1980.3411,3209.7861 c-20.7156-18.1887-47.6674-29.4048-54.4244-22.6484c-1.8754,1.8752,3.6729,21.0999,12.3284,42.7207 c27.0787,67.6421,26.5709,165.3757-1.0806,207.8916c-9.6646,14.8594-13.7766,15.3997-41.2795,5.4233 c-53.895-19.5491-97.9307-107.5317-68.5343-136.928c19.0776-19.0791-9.2478-17.0864-13.8005-94.5081 c-3.0208-51.3936,5.4775-70.906,30.8807-70.906c15.1528,0,17.7034-2.373,19.0551-17.7266 c4.0724-46.2678,7.9414-56.6689,23.2444-62.4868c27.2367-10.3557,76.8754,17.2786,96.3279,53.6265 c5.1212,9.5667,10.4026,11.9678,20.6759,9.3892c11.0812-2.7813,17.5079,1.2219,32.6414,20.3289 c21.1642,26.7212,35.3138,67.2764,35.3138,101.2126c0,21.2397,1.1287,22.696,17.5901,22.696 c59.0925,0,47.686,129.491-14.2217,161.4529c-40.0079,20.6548-42.0175,18.7341-39.6892-37.9243 C2038.9108,3305.2256,2020.7406,3245.2571,1980.3411,3209.7861z M1427.6304,3784.5503 c-66.6222,1.1274-134.4259,0.9277-150.6752-0.4429c-58.1296-4.9026-153.605-26.7808-172.7928-39.5959 c-19.847-13.2559-25.7025-34.6453-11.858-43.3186c4.0623-2.5449,86.4901-4.0198,183.1737-3.2776 c164.0406,1.2593,175.8129,0.6563,176.1317-9.0161c0.2777-8.5042,0.0591-188.9392-0.2539-203.8799 c-0.0505-2.4373-19.9301-4.4316-44.1755-4.4316c-49.2585,0-48.8452,0.2676-72.9321-47.1748 c-14.9487-29.4417-20.4767-34.4121-60.5084-54.3955c-85.928-42.895-186.6624-49.6355-181.333-65.7041 c1.2832-3.8696,55.2964-28.3669,120.0295-54.4387c164.871-66.4028,150.2496-56.4651,164.995-112.1357 c15.4991-58.52,22.4343-71.5249,45.678-85.6602c13.4651-8.1887,21.2435-9.6248,29.167-5.3843 c13.7528,7.3608,13.5725,15.6204-1.2515,57.2166c-21.1469,59.3391-30.1803,113.2905-25.9464,154.9587 c4.0054,39.4143,34.7743,128.5879,56.4946,163.7329c7.3823,11.9453,13.4073,34.2612,15.2589,56.5203 c4.4121,53.0425,12.5721,63.3713,50.0664,63.3713c61.4635,0,50.4104-32.8621,123.3612-31.7432 c42.7142,0.6584,55.1572,5.4565,80.8893,31.188c9.5276,9.5273,28.2365,20.2625,41.5753,23.8538 c28.7378,7.7388,48.5214,30.3259,48.5214,55.3997c0,13.7729-6.6532,24.4287-28.2501,45.2451 C1711.7222,3773.0532,1558.4027,3782.3406,1427.6304,3784.5503z M532.2285,2033.5851c5.2171-16.439,7.663-16.0206,47.8931,8.2047 c18.8892,11.3748,36.4946,20.6809,39.1229,20.6809c1.6033,0,4.78,3.1987,4.78,17.7266c0,22.2959-10.3091,22.3586-49.0789,0.3008 C536.3644,2058.5476,527.4225,2048.728,532.2285,2033.5851z M552.1354,2160.925c-8.9462,36.6575-14.4172,41.8191-31.263,29.5015 c-10.2914-7.5259-10.5345-10.7068-3.385-44.3962c5.8576-27.6003,10.1645-36.2888,17.9883-36.2888 C556.2122,2109.7415,561.0211,2124.5164,552.1354,2160.925z M568.0327,2514.4976 c16.0768-223.4124,44.2144-242.9653,81.087-387.0283c17.6825-69.084,18.9159-80.5482,19.0637-177.2649 c0.1306-85.5027-1.726-108.8127-10.7278-134.64c-13.121-37.6465-9.7497-43.6743,32.2224-57.6147 c24.6011-8.1715,33.9556-8.6094,58.4398-2.7351c37.9313,9.0991,76.8898,35.2777,98.1939,65.9824 c16.7087,24.0818,17.0932,26.4412,20.9283,128.4716c9.2608,246.3733,73.2463,266.1904,103.1982,517.5579 c9.4576,79.3708,7.5793,170.5422-4.7468,230.4443c-13.7096,66.6228-48.9786,159.4324-65.9362,173.5061 c8.0388,8.0388-256.1238,7.5823-263.2733-2.1494c-8.1434-11.084-35.1154-88.54-44.7584-128.5378 C575.7231,2674.1262,564.352,2565.6538,568.0327,2514.4976z M1995.3525,2471.2524c-8.9266,5.5742-13.3251,5.4314-20.6809-0.6736 c-14.3933-11.946-11.0026-25.6838,9.9625-40.3594c18.0504-12.6348,19.5239-12.7979,26.7708-2.9543 c4.2174,5.7292,6.4845,14.9778,5.0383,20.5518c-1.6309,6.2825,1.6307,11.4873,8.5804,13.6931 c13.4132,4.2571,14.7064,22.0491,2.3478,32.3059c-13.5519,11.25-3.2798,17.3054-20.8151,28.2566 c-16.9713,10.5989-20.9167-2.9529-9.0969-31.2427C2009.0745,2463.0305,2009.0398,2462.7043,1995.3525,2471.2524z M1918.0653,1979.7471c-16.3696-48.5502-69.9711-161.9078-95.6477-202.2793 c-184.7144-290.4159-290.3173-365.4489-276.4758-379.2903c6.4196-6.4196,45.3087,31.8984,147.4943,145.3303 c118.2922,131.3112,109.4474,126.999,165.5237,211.7037c19.8868,30.0397,66.514,119.4764,77.8722,149.3704 c27.3918,72.0911,39.6704,117.5952,49.2563,182.5433c9.6099,65.0959,9.6156,72.0664,0.1061,124.0854 c-7.9352,43.4055-17.7495,65.4551-19.3429,65.4551c-11.4513,12.7805-33.7947,14.1497-29.0479,1.7795 c1.8068-4.708,7.5879-29.304,12.8477-54.6567C1965.2292,2153.5144,1957.7379,2097.4094,1918.0653,1979.7471z M1337.7003,1112.3746 c13.7096,18.5481,24.9279,36.496,24.9279,39.8846c0,10.7451-14.3364,6.6777-31.0321-8.8033 c-49.3257-45.7379-145.8678-227.9459-146.1693-275.8721c-0.0685-11.0242,35.7278-29.4381,112.2043-57.7178 c128.5294-47.5291,160.3944-68.1825,178.0612-58.7284c12.7906,6.8451,14.1157,14.6221,3.6353,21.3308 c-9.0868,5.8158-76.7664,30.1933-153.8344,55.4097c-62.821,20.5546-69.7692,26.9352-70.2893,64.5341 C1254.4552,946.6887,1294.8577,1054.4152,1337.7003,1112.3746z M1347.8323,1090.4683 c-28.7327-54.8247-62.0182-163.1578-62.0182-201.8458c0-15.0649,2.5166-19.7353,10.6362-19.7353 c17.7395,0,24.8168,12.6803,24.8168,44.4626c0,58.1088,48.225,171.2291,116.5869,273.4773 c191.9821,287.1454,482.8297,359.9929,591.0863,683.6066c25.7106,76.8574,27.976,92.8845,27.976,197.9459 c0,92.3181-1.584,109.05-14.772,156.0574c-12.4712,44.4517-17.5332,54.342-32.4985,63.4983 c-31.1144,19.0349-35.5792,12.9016-19.4202-26.6865c47.8312-117.1826,34.0977-285.2849-34.793-425.8684 C1831.8959,1583.2781,1513.9568,1407.4543,1347.8323,1090.4683z M2438.0352,2323.0527 c-143.5286-37.2454-253.0886-30.0344-356.7722,23.4802c-51.5227,26.592-64.9315,24.6345-42.2094-6.1641 c17.026-23.0764,35.5856-36.4888,77.642-56.1057c53.8994-25.1414,78.0808-29.4431,161.8013-28.7817 c197.5981,1.5601,344.3428,79.3914,515.7769,184.4822c85.5381,52.4346,116.4504,66.8096,116.4504,76.0105 c0.0095,4.0623-1.9771,7.2561-4.4143,7.0967c-18.825-1.2268-153.54-63.1023-236.6648-108.7017 c-26.9827-14.8015-52.2432-26.949-56.1338-26.949c-3.8906-0.0193-13.7219-3.4666-21.8464-7.658 c-21.322-11.0015-77.3701-31.1677-97.4958-40.0144C2487.6694,2336.8909,2462.4089,2329.3779,2438.0352,2323.0527z M2058.5725,2230.5601c-1.7969-1.7976,0.1189-14.5161,4.2563-28.2646c29.0471-96.5146,21.1777-249.568-18.2776-355.4969 c-26.6981-71.6743-10.1583-46.0282-77.3861-157.7618c-58.2875-96.876-238.1888-225.2992-238.1888-243.7891 c0-7.3262,25.7719-2.3542,48.8655,9.4274c33.2717,16.9741,131.3524,92.2064,161.8263,124.1294 c50.3923,52.7878,108.1772,144.0076,132.337,208.9058c33.0654,88.8236,37.4768,115.7242,37.7957,230.4445 c0.3066,110.6023-5.1904,149.6833-27.2173,193.5142C2081.0837,2211.6687,2071,2242.9875,2058.5725,2230.5601z M1959.6262,2316.551 c36.7087,0,44.6776,12.7166,21.5717,34.4231c-16.6077,15.6023-22.989,16.0149-35.4104,2.2893 C1931.2715,2337.2234,1939.0636,2316.551,1959.6262,2316.551z M1976.4208,2370.0046c11.4513-6.0359,14.9834-5.926,19.1135,0.593 c17.4568,27.5471-12.1854,44.3313-12.1854,43.2961c-24.4836,12.6616-29.8529,11.3567-29.7468-7.2339 C1953.7124,2386.8252,1958.2074,2379.6042,1976.4208,2370.0046z M2030.3259,2415.322c0-25.3433,30.3389-36.739,97.4956-36.6265 c158.103,0.2688,333.8489,85.9834,333.8489,63.5798c0-4.998-48.7095-21.2783-180.2192-60.2332 c-81.8308-24.2385-107.0283-14.1404-88.0229-28.5776c21.8247-16.5801,151.8125-5.8494,294.832,55.1372 c220.9375,94.2156,264.7983,115.1152,323.5083,129.8325c7.4719,1.8733,39.8845,10.3059,39.8845,18.1443 c0,18.2158-38.7383-1.1802-233.1975-42.2981c-81.0349-17.135-234.3291-52.6594-277.916-64.405 c-130.5547-35.1787-240.6926-47.5354-273.3203-30.6636C2041.2802,2432.625,2030.3259,2431.4702,2030.3259,2415.322z M2054.9119,2457.7751c10.166-71.8936,258.9663,17.7576,1044.9128,177.6631c305.8872,62.2344,348.6208,63.9167,348.6208,85.4429 c0,4.4121-3.3237,9.2195-7.386,10.6824c-15.7949,5.6863-1244.5928-245.4727-1245.2856-245.6147 c-37.7583-7.7434-75.4814-21.98-114.2124-17.3916C2053.9353,2471.8289,2052.9795,2471.4421,2054.9119,2457.7751z M3755.0752,2705.0559c-91.9663,74.4546-105.7285,80.3909-105.7285,45.6067c0-10.0022,11.8853-20.1912,51.7021-44.3164 c91.874-55.6711,163.2104-112.1133,172.0508-102.8252C3880.3171,2611.106,3750.9854,2705.0559,3755.0752,2705.0559z M3666.2544,2824.3115c7.4446,24.8469,6.7268,26.7874,6.7268,26.1956c-0.0012,10.8853-80.4673-11.7898-156.584-26.0889 c-40.9688-7.696-486.9299-95.7668-548.7061-110.812c-12.3516-3.0085-19.3198-10.1609-25.8447-26.5293 c-4.9141-12.3262-7.5461-23.7983-5.8489-25.4954c2.6838-2.6841,213.3757,37.3203,565.6277,107.396 C3670.6125,2802.5955,3658.5315,2798.5354,3666.2544,2824.3115z M4021.5991,2729.3787 c132.647-7.949,162.5229-7.573,197.8896-8.0735c0.332,10.1563,2.2456,34.0273-3.9536,42.1221 c-6.0698,7.925-124.8127,9.9182-127.5908,10.4739c-225.3091,6.9963-265.9897,23.2195-204.9429-20.7725 C3905.7683,2736.7222,3909.3792,2736.1033,4021.5991,2729.3787z M3986.1477,2679.1614c0-8.6958,40.9426-38.3293,60.8403-44.0361 c26.5393-7.6101,175.7864-4.8386,222.4255-10.4221c31.9326-3.8228,32.2725-4.0774,52.3091-39.3003 c166.8174-293.2405,165.1841-295.8286,200.9282-322.8269c17.2139-13.002,34.0381-22.7263,37.3862-21.6106 c7.6934,2.5662-8.397,9.9041-190.8276,342.4634c-22.5791,41.1626-45.2441,76.449-50.3662,78.4146 c-12.9277,4.9617-224.0723,12.9016-289.8564,18.6814C4005.425,2682.5942,3986.1477,2681.9802,3986.1477,2679.1614z M4229.6655,2798.9243c33.0981-52.7029,67.9561-115.1025,85.8545-119.7527c27.644-7.1794,176.7397-297.9312,202.6372-338.9858 c19.9131-31.5752,33.707-71.0247,41.6206-58.5259c15.936,25.1709-7.5527,52.4136-99.6235,206.2466 c-32.2236,53.8403-171.6543,275.718-181.0264,292.4871c-25.0249,44.7705-19.1392,42.3694-114.4014,46.6726 c-378.7468,17.1067-385.3865,17.9546-385.3865,7.7598c0-4.7759,7.3125-11.54,16.2493-15.0317 C3816.9214,2811.4578,4201.9922,2799.886,4229.6655,2798.9243z M4303.2358,2964.2126 c-6.2695,5.9802-177.8799,13.3447-541.6223,23.2444c-632.9299,17.2253-744.5125,27.5186-744.5125,12.4841 c0-22.5339,13.4912-25.5085,133.8994-29.5261c1117.8101-37.2927,1120.5259-39.3179,1131.522-50.2712 c18.0313-17.9612,276.897-535.3779,301.8774-566.6641c8.2144-10.2883,28.085-9.2563,28.085,1.4592 C4612.4849,2363.1575,4311.5352,2956.2966,4303.2358,2964.2126z M4343.9653,3029.7075 c-8.7178,9.8533-183.3389,9.5183-443.9827,16.9575c-95.24,2.718-113.887,1.8552-120.0352-5.5525 c-18.5771-22.3821,8.4683-20.3076,534.1418-42.093c221.9321-446.1392,238.041-496.6235,255.3916-479.2732 C4580.1582,2530.426,4350.5322,3022.2861,4343.9653,3029.7075z M3547.8318,3595.6936 c77.0181,13.1943,37.3855,25.0588,326.3965-183.0562c284.0559-204.5466,343.2092-257.0339,372.2493-257.0339 c26.0859,0,21.1011,11.9431-16.0288,38.4072c-18.2388,12.9993-72.5679,52.8838-120.7319,88.6326 c-481.4353,357.3381-465.3811,347.3904-495.8232,349.0881c-48.8093,2.7227-82.6563-11.4729-141.8118-18.2175 c-50.896-5.8049-88.6326-16.1865-88.6326-24.384C3383.4492,3570.6057,3406.8328,3571.5391,3547.8318,3595.6936z M3401.175,3341.1184c0-21.749,0.4177-12.5908,73.8604-2.4387c41.9431,5.7993,72.8159,18.0728,88.1909,35.0613 c11.0452,12.2051,10.9954,12.2996-6.0286,11.7261c-29.4221-0.9939-128.7673-17.0029-142.7278-22.9998 C3405.4702,3358.6011,3401.175,3351.7041,3401.175,3341.1184z M4011.3071,3291.4409 c-403.2344,287.499-384.7668,289.9861-416.2703,288.9707c-31.6367-1.0164-177.4214-27.8406-183.3093-33.7283 c-3.2632-3.2632-1.9438-8.8599,3.3315-14.1353c11.7219-11.7207,18.5798-5.6707,182.3276,18.2285 c144.3418-98.3167,392.5823-277.0762,394.6733-278.7935c53.1687-43.6604,114.5283-75.1211,125.3682-64.2808 C4120.021,3210.2939,4072.2664,3247.9773,4011.3071,3291.4409z M3954.7615,3274.9607 c-112.5671,76.2251-330.6328,247.8518-355.345,246.1636c-6.6626-0.4543-48.6736-7.6033-93.3591-15.8865 c-77.4509-14.3567-81.2463-15.7185-81.2463-29.1431c0-13.6816,0.9688-13.9666,33.9758-9.9792 c68.7212,8.3027,136.9067,27.2266,153.1555,18.582c28.4084-15.1145,301.2852-211.5667,302.1936-212.2224 c63.8467-46.0935,70.6304-49.7129,78.4731-41.8701C4002.0652,3240.061,3996.2673,3246.8555,3954.7615,3274.9607z M3917.793,3248.2959c-0.5928,0.4204-258.1633,183.2314-258.7566,183.2314c-38.8445,28.5237-43.2695,29.0833-121.9583,15.4119 c-123.2312-21.4094-109.1233-16.7925-124.4792-50.4927c184.7981,19.2285,178.4368,40.4819,219.7808,5.0933 c13.2854-11.3713,32.7603-21.4946,45.2561-23.5237c22.396-3.6375,72.3152-38.8062,191.4556-134.8816 c47.0347-37.9299,60.9448-46.1692,77.9436-46.1692c11.3799,0,22.2302,2.4919,24.1128,5.5374 C3973.0295,3205.5479,3949.0205,3226.1553,3917.793,3248.2959z M3898.0793,3184.0959 c-14.6484,27.3701-154.1169,124.4268-152.249,126.2947c-44.6472,36.1353-51.5408,38.0713-99.4375,27.9343 c-30.5879-6.4734-63.8354-11.5522-162.1963-28.8057c-110.4988-19.3826-102.0742,3.3723-121.2456-17.8115 c-19.7524-21.8257,2.7717-19.1772,2.7717-47.5051c0-18.9202-18.0693-10.3889,318.0642,43.7039 c118.6914-85.3755,154.8926-139.4873,204.3755-120.6729C3901.0901,3172.1492,3902.8616,3175.1614,3898.0793,3184.0959z M3371.6316,3357.6331c0,6.2349,5.5605,23.543,12.3564,38.4609c10.7075,23.5054,11.8105,33.5149,8.2632,75.0137 c-3.5847,41.9277-12.3857,67.0925-13.031,67.0925c-5.1599,11.0891-13.0208,18.8652-18.6035,18.3987 c-27.7964-2.314-39.7988-8.3352-63.1396-31.6763c-23.3064-23.3064-27.6055-25.3074-48.3845-22.5203 c-18.928,2.5391-26.1575,0.238-42.5237-13.533c-23.6028-19.8613-35.8374-46.7288-35.8374-78.7031 c0-46.938,41.7-42.2461,104.4929,11.7578c22.1501,19.0508,43.9426,34.7273,48.4275,34.8335 c14.9417,0.3591,3.9961-50.5251-18.75-87.1667c-21.384-34.4475-21.6084-50.3982-0.8223-58.3743 C3326.0957,3302.7681,3371.6316,3334.0562,3371.6316,3357.6331z M3277.0903,3563.8032c0,26.1467-94.228-3.2666-140.5425-5.9543 c-5.916-0.3455-6.1021-3.2314-0.8438-13.0569c6.1135-11.4238,10.1724-12.2886,43.0466-9.1719 C3244.7302,3541.875,3277.0903,3551.1494,3277.0903,3563.8032z M3268.0129,3362.4124c24.5007,0,46.2605,51.5962,44.5288,51.5962 c0,14.6372-22.6846,7.1807-40.7493-13.3943C3249.4583,3375.1772,3248.1953,3362.4124,3268.0129,3362.4124z M3302.1018,3288.053 c-46.0151,23.6418-31.2986,43.6563-70.5112,55.4031c-46.8542,14.0374-56.5181,5.103-114.9734-25.0173 c-21.0371,27.8894-18.6863,29.3218-44.2507,21.6475c-26.436-7.9363-62.3447-40.603-73.0547-66.4585 c-10.251-24.7473-4.1855-27.6997,25.9688-12.6399c89.9631,44.9304,191.7168,11.3503,114.2224-8.4204 c-42.7065-10.8931-85.6487-48.0256-123.4194-63.4685c-11.9338-4.8804-26.199-15.7422-31.7009-24.1389 c-9.2534-14.1213-9.2852-16.3604-0.4255-29.8823c12.7878-19.5161,64.9971-34.6416,121.4382-35.1855 c41.8213-0.4016,44.1482,0.2808,47.4343,13.9153c2.8557,11.8442,9.0789,15.4883,35.7913,20.9573 c50.6152,10.3628,70.7422,25.9353,70.7422,54.7358c0,7.8621,8.3396,14.0378,28.9824,21.4607 C3345.8093,3231.6248,3351.3611,3262.7407,3302.1018,3288.053z M3078.6821,3390.3481 c-19.1741,54.2495-48.6875-33.8452-20.9434-33.8452C3087.0215,3356.5029,3080.2415,3391.9075,3078.6821,3390.3481z M2891.8826,3222.6448c5.4399,15.043,7.7371,37.2151,7.0413,37.9111c0,21.3459-3.6648,24.5122-22.7222,19.6284 c-8.7991-2.2546-18.5083-13.1123-26.5898-29.7339c-19.697-40.51-35.7869-49.2231-88.9944-48.1931 c-25.5056,0.4941-44.8667-1.5933-44.8667-4.8369c0-3.1384,6.1418-12.8455,13.6492-21.5732 c17.7654-20.6536,54.8477-26.4607,126.3171-19.7822c64.1675,5.9961,106.9324,19.4556,167.293,52.6516 c53.3474,29.3394,57.8037,33.2581,48.4485,42.6133c-8.1082,8.1079-27.5044,2.4558-86.856-25.3118 c-41.9822-19.6406-89.4763-33.134-95.4846-27.1255C2886.7649,3201.2454,2888.0093,3211.9336,2891.8826,3222.6448z M2790.0916,3376.3059c-6.3936-16.6597,2.6897-20.106,42.782-16.2283c43.7148,4.229,50.4871,7.5491,44.9316,22.0269 C2871.814,3397.7175,2796.3943,3392.7312,2790.0916,3376.3059z M2875.29,3448.5125c0,10.0996-18.8684,10.0996-64.9973-0.0007 c-22.8584-5.0051-31.9351-9.6279-30.5994-15.5857c3.5547-15.8533,11.5002-18.3562,44.9944-14.1711 C2858.3765,3422.9636,2875.29,3432.9102,2875.29,3448.5125z M2824.3718,3330.6685c-37.4258-6.8999-55.4417-16.9814-55.4417-31.0229 c0-10.0764-1.9294-10.1147,65.4329,1.2891c60.5295,10.2458,66.8645,13.1448,61.1685,27.9905 C2891.2205,3340.1606,2877.655,3340.4932,2824.3718,3330.6685z M2891.8501,3484.3765 c18.5134,2.6313,33.6331,21.3899,26.7131,33.1428c-3.7195,6.3188-4.9832,4.3892-55.0911-4.9944 c-189.3096-35.4492-194.927-37.2056-161.0154-50.3396C2726.5767,3452.8438,2800.1951,3471.3489,2891.8501,3484.3765z M2786.7952,2975.3379c60.0427-19.9421,75.5403-2.0664,25.7964,29.7549c-44.8601,28.6958-47.5527,29.418-55.3528,14.8428 C2746.219,2999.3447,2755.1672,2985.8435,2786.7952,2975.3379z M2928.7083,3101.5527 c41.5674-35.3003,46.5405-37.6047,57.4971-26.6482c9.0696,9.0701,7.9182,11.6301-16.3567,36.3645 c-27.7339,28.259-40.9695,32.4785-53.7112,17.1257C2909.3416,3120.2061,2911.0574,3116.5417,2928.7083,3101.5527z M3188.458,2833.2073c70.5134-2.7756,103.6604-1.4492,144.063,5.7666c28.8611,5.1545,54.9436,9.3718,57.9595,9.3718 c3.0156,0,4.0493,2.3203,2.2959,5.1565c-4.4492,7.2021-356.3259,12.1279-369.7656,15.7393 c-9.7771,2.627-47.2708-13.8926-47.2708-20.8271C2975.74,2843.7229,3042.4192,2838.9561,3188.458,2833.2073z M2983.075,2811.5669 c4.9255-14.7786,86.498-21.8088,155.1572-13.3726c40.8662,5.0208,48.7637,8.2478,37.5605,15.3462 C3167.3582,2818.8843,2979.2356,2823.0867,2983.075,2811.5669z M3974.3323,2869.5603 c128.3699-5.2725,242.9285-9.5513,254.5745-9.4922c23.5854,0.1047,30.1724-7.8635,94.1382-113.884 c34.2568-56.7788,39.0845-61.9275,48.8867-52.125c6.6655,6.6663-0.3403,22.2432-69.2954,154.0681 c-14.3867,27.5051-30.9902,51.7505-36.896,53.8806c-33.5771,12.1079-1187.3235,43.9202-1207.9207,50.106 c-16.4685,4.9465-25.166-11.9438-16.0078-31.0806l7.9236-16.5549c525.5278-16.0376,526.3406-21.6267,593.7024-8.3657 c50.1025,9.863,50.282,9.855,73.8604-3.5393C3739.8435,2879.7651,3751.698,2878.7034,3974.3323,2869.5603z M2912.9529,2712.5205 c2.4402,13.6599,8.2532,22.7524,16.998,26.5898c15.9607,7.0029,20.6982,36.9431,9.9509,62.8909 c-9.8982,23.8965-21.9871,28.8906-51.1116,21.1165c-23.5681-6.291-24.6682-7.6433-28.426-34.9675 c-4.6819-34.0427-13.4448-41.4692-26.0278-22.0598c-5.0996,7.8662-19.5825,25.6035-32.1833,39.4158 c-30.8442,33.8083-40.4348,22.4731-43.075,25.113c-23.4907,0-50.01,15.2261-66.9634,23.875V2828.7 c0-27.1257,12.6055-45.3521,31.3662-45.3521c5.4053,0,15.0432-10.3665,21.6143-23.2451 c12.2568-24.0256,32.0615-41.752,46.646-41.752c4.6018,0,19.9041-10.6362,34.0068-23.6355 C2867.321,2656.3945,2904.2751,2663.9399,2912.9529,2712.5205z M2835.4045,2822.3936c-11.884,9.0205-15.6736,9.7852-21.1865,4.2729 c-5.2554-5.2561,13.4817-25.592,23.5798-25.592C2849.0154,2801.0745,2847.6672,2813.0847,2835.4045,2822.3936z M2717.4387,2871.3074c22.6262-16.5061,27.7473-17.8384,56.0796-14.5852c22.8782,2.627,36.1384,1.0161,49.804-6.051 c27.2166-14.0745,74.5239-7.6624,90.595,12.2786c19.3169,23.9697,28.9929,5.8347,62.4243,28.6296 c17.0874,11.6516,19.9763,16.9531,19.3914,35.5913c-0.9795,31.3354-17.4949,32.563-26.7607,66.7183 c-3.4089,12.5713-11.6323,31.7527-18.2739,42.6255c-14.8833,24.3667-54.8557,54.0918-72.741,54.0918 c-31.3142,0-95.2488,57.7432-105.981,23.926c-5.564-17.5288,7.8267-59.0688,23.8179-73.8884 c27.2791-25.2839,153.5518-89.8569,113.2371-105.3267c-4.1907-1.6086-27.4568-0.8894-51.7021,1.5962 c-32.1365,3.2954-56.0488,10.3215-88.2329,25.9268c-44.679,21.6641-84.1028,27.8779-92.3369,14.5549 c-6.9253-11.2053-3.1133-51.3892,6.6704-70.3079C2688.439,2897.3987,2703.7434,2881.2986,2717.4387,2871.3074z M2732.2944,3014.9722c9.8635,9.8638,8.5322,46.6375-2.2036,60.8447c-6.5552,8.675-7.9458,19.6335-5.2502,41.3618 c4.1653,33.5745,2.5359,30.8665-36.8069,76.2795c-95.6003-14.8621-94.3315-16.1218-95.0505-16.8408 c-6.3833-6.384,7.7185-41.9358,26.2795-66.252c11.3584-14.8796,18.4031-29.302,15.6565-32.0486 c-2.7468-2.7473-27.5627,3.7803-55.1458,14.5051c-86.3503,33.5762-65.6113,51.6582-131.7117,87.8933 c-41.5767,22.7927-47.7712,21.728-43.8459-7.5391c4.1572-30.9956,20.6304-56.332,42.7849-98.8201 c17.5173-33.5977,22.562-36.0674,43.5864-21.3408c27.8328,19.4946,5.2307-10.4556,80.7263-42.541 c36.8291-15.6528,40.9094-16.1895,72.8765-9.5867C2694.3696,3011.2515,2722.3081,3004.9858,2732.2944,3014.9722z M2559.1667,3173.1187c-15.0808-0.2114-32.4985-13.3245-32.4985-24.4656c0-9.4382,40.2498-34.4121,55.4609-34.4121 c11.9829,0,11.9128,2.9573-0.8042,33.8914C2581.325,3143.3398,2575.3296,3173.3457,2559.1667,3173.1187z M2533.002,2922.4268 c17.0845-45.6636,26.9209-42.6746,32.1885,9.7815c3.9685,39.5139,3.3418,43.2522-8.9182,53.1794 C2521.0969,3013.8716,2510.0107,2983.8767,2533.002,2922.4268z M2627.0376,2957.7349 c-31.0854,29.7822-47.0981,1.1626-47.1575-84.2781c-0.0388-57.8447-5.9902-61.4482-33.7759-20.4529 c-60.8618,89.7971-26.9175,160.6929-57.1294,160.8525c0,0.5942-6.1753-0.9861-34.3955,3.6807 c-19.5088,3.2249-22.2346,2.1047-25.3064-10.4053c-8.3887-34.1589-5.5144-66.8516,6.9771-79.343 c17.0696-17.0696,5.9639-71.8542,18.7375-95.7227c8.2451-15.406,34.6682-30.1536,49.7239-27.7517 c17.2944,2.7588,24.8418-40.5957,45.7371-59.5059c15.4099-13.9456,39.4028-6.9822,51.9541,15.0779 c5.4695,9.6125,13.2256,17.5144,17.2368,17.5144c17.075,0.0879,43.6663,32.5671,46.9963,57.4033 C2671.019,2867.4902,2648.6057,2937.0713,2627.0376,2957.7349z M2464.5779,2800.0212 c-19.0276,8.6699-18.7046,8.6887-22.5476-1.3264c-4.679-12.1926,9.804-28.7869,22.9199-26.2615 C2482.1875,2775.7534,2481.9675,2792.0979,2464.5779,2800.0212z M2493.3367,2765.6213c-8.5076,0-20.3-8.6086-32.3745-23.6331 c-10.4458-12.9985-20.5425-22.0955-22.4365-20.2163c-3.6304,3.6013-5.8074,63.5176-6.3994,63.5176 c-2.6809,54.5349-4.0542,60.259-14.8303,61.8032c-7.4619,1.0698-20.1465-6.7671-34.1274-21.0847 c-17.9514-18.3843-22.9407-28.6072-25.8186-52.9104c-4.2708-36.0581,0.8931-60.6558,12.7336-60.6558 c4.7512,0,10.1104-7.3125,11.9102-16.2493c18.8474-93.6013,61.666-118.0518,94.7388-54.0969 c5.0557,9.7764,13.6917,17.1667,20.0613,17.1667c13.833,0,35.7834,34.1013,35.7834,55.593 C2532.5771,2736.4358,2510.0173,2765.6213,2493.3367,2765.6213z M2361.1179,2658.8745 c-319.7191,3.584-327.4705,5.7493-333.6238-10.2856c-4.7699-12.4287,26.6157-42.1379,45.7639-43.3196 c48.4541-2.989,265.427,2.6155,283.5308,7.3242C2385.4473,2620.0481,2382.5525,2617.4255,2361.1179,2658.8745z M2089.7207,2736.0771c57.9458,0,106.7866,2.3154,108.5366,5.1458c1.749,2.8303-1.4182,10.4365-7.0378,16.9028 c0,14.4685-97.1958,14.0308-118.6021,14.5903c-92.5397,2.4185-108.8799,1.5413-111.7758-6.0056 c-1.9685-5.1289,2.2561-13.4116,10.0663-19.7358C1982.8619,2737.2947,1996.1351,2736.0771,2089.7207,2736.0771z M1939.0355,2683.3645c-6.6626,0.2568-8.7897,1.8083-4.7274,3.447c10.9313,4.4097,8.3346,22.1382,0,32.9854 c-6.1655,8.0237-10.01,8.4551-23.2638,2.6062c-15.3224-6.7615-15.5901-7.6782-7.671-26.2104 c4.5132-10.5618,10.9926-19.2036,14.3999-19.2036c3.4067,0,6.1945-4.9922,6.1945-11.0942 c0-15.3022,14.7137-26.1108,29.2607-21.4939C1975.6613,2651.5208,1964.4177,2682.3872,1939.0355,2683.3645z M1936.1965,2992.6157 c-12.0117,14.4736-29.1777,11.5581-33.5062-5.6895c-4.4366-17.6768-3.1016-19.6272,14.8976-21.7549 C1935.5588,2963.0471,1946.8795,2979.7429,1936.1965,2992.6157z M1912.1508,2887.385c0,18.3367-1.5133,20.0483-17.7264,20.0483 c-10.1991,0-17.7482-3.1362-17.8074-7.386c-0.2075-18.8596-12.4019-31.0938,4.6171-36.4946 C1901.2087,2857.2134,1912.1508,2865.6475,1912.1508,2887.385z M1908.5991,2733.5007 c13.6974,3.4385,15.7501,6.6792,14.2117,22.4524c-1.9316,19.8054-12.7294,25.2952-29.8645,15.1826 C1871.1135,2758.252,1883.9778,2727.3215,1908.5991,2733.5007z M1889.65,2918.4243c17.7172-11.2363,36.162-0.6086,33.3584,19.2209 c-1.4404,10.1841-6.3107,14.6047-17.5225,15.9038c-12.6327,1.4644-16.2766-1.1851-19.5463-14.2117 C1883.2991,2928.8152,1884.5707,2921.645,1889.65,2918.4243z M1918.1288,2632.6287 c-16.1489,9.979-109.2137,154.3323-43.4507,344.9084c12.5714,36.429,13.7177,44.7649,7.0406,51.1858 c-4.387,4.2183-17.7893,11.6895-29.783,16.6013c-26.4786,10.8462-28.3418,9.0464-44.8701-43.3503 c-21.7325-68.8921-26.8704-102.3103-26.7997-174.3105c0.0613-61.3438,2.2094-77.1711,15.9333-117.3643 c8.7247-25.5527,22.1228-57.6704,29.7721-71.3721c32.6227-58.4333,32.8094-58.5286,72.8838-37.303 C1923.3149,2614.5791,1929.9811,2625.3032,1918.1288,2632.6287z M1798.7008,3319.8677c-9.7692,9.7693-12.6118,9.084-27.3319-6.5854 c-17.6941-18.8335-17.1654-39.5037,1.0083-39.5037C1797.4399,3273.7786,1814.6522,3303.9155,1798.7008,3319.8677z M1398.2665,2993.332c-12.8318-15.4617-14.6472-75.6211-3.1874-105.6274c12.5093-32.7649,6.7369-45.0186-0.4818-79.77 c-4.1957-20.1926,24.4872-70.8792,50.6521-89.5103c18.9454-13.4895,57.4971-15.8772,72.7474-4.5051 c19.1206,14.2585-10.624,22.0085-28.5106,113.7449c-12.6157,64.7034-22.9989,73.7234-15.6188,81.1035 c10.5704,10.5698,104.6819-99.4509,126.2377-147.5779c6.1865-13.812,13.5928-25.1125,16.4578-25.1125 c6.105,0,23.7565,16.7449,23.8157,22.5801c0.0179,2.2051,2.6594,19.9634,5.8677,39.4626 c4.5291,27.5188,3.8906,42.1619-2.8513,65.4343c-19.8745,68.6028-53.15,39.0632-68.6158,69.0608 c-19.2405,37.3235-59.4438,61.3906-85.8071,51.3677c-11.9084-4.5276-18.5834-3.2385-31.739,6.1289 C1461.4984,2990.1116,1415.5011,3014.0979,1398.2665,2993.332z M1298.1821,3002.7471 c-6.8025-9.5535-12.3688-23.8242-12.3688-31.7124c0-12.1731,4.0508-15.2683,26.7954-20.4731 c23.5343-5.386,27.4891-4.8347,32.4985,4.5247c3.1361,5.8613,5.7032,14.449,5.7032,19.084 c0,10.5574,24.1382,43.9966,30.0173,52.6602c-8.1554,30.7078-24.4189,91.1594-31.3568,122.0002 c-7.6633,34.0662-9.8083,25.3213-107.9731,71.7944c-0.6003,0.2842-181.5732,76.7888-185.4126,76.7888 c-10.4255,0-54.6848-36.625-60.9954-50.4753c-5.6441-12.3889-4.7036-16.7302,6.123-28.2551 c7.0363-7.49,12.8246-20.0938,12.8837-28.0093c0.0498-7.9148,2.0442-17.1934,4.4316-20.6189 c2.3875-3.4253,30.2373-16.0552,61.889-28.0669c67.1409-25.4797,100.5626-28.0156,120.6399-9.1538 c11.1735,10.4961,15.062,11.3906,22.5389,5.1846c4.9703-4.1243,9.037-11.2939,9.037-15.9326 c0-22.7358,46.3647-84.6611,63.3872-84.6611C1309.8916,3037.4253,1310.936,3020.6589,1298.1821,3002.7471z M1365.0106,2827.3655 c9.3357,17.3362,9.7555,22.8081,3.2697,42.5938c-13.0273,39.7361-21.3553,47.9307-51.7643,50.937 c-3.8079,0-31.25,3.9065-40.875,7.1033c-10.5186,3.4932-14.4828,1.3855-19.9459-10.606 c-9.731-21.356-1.8767-54.0276,18.5928-77.3413c21.2659-24.2202,21.5342-27.1602,2.4777-27.1602 c-31.1937,0-25.6376-38.5879,10.5071-72.9717c31.2601-29.7361,57.1322-40.4602,86.343-35.7893 c65.1622,10.4197,19.4706,22.0066-9.0717,81.8567C1354.774,2806.4753,1354.7957,2808.3984,1365.0106,2827.3655z M1371.9307,2490.5081c-11.897-47.4041,69.3032-76.3135,148.3851-52.8289c31.8826,9.4678,29.9307,6.2197,38.6035,64.2571 c1.3561,9.0767-5.8107,13.1406-39.7064,22.5173c-92.6133,25.6184-151.3849,67.2712-74.0096,47.7813 c56.8861-14.3291,71.5168-0.1702,42.3594,40.9939c-9.8767,13.9448-19.6877,32.5564-21.8004,41.3604 c-2.7863,11.6025-9.9135,22.3652-10.6499,21.6287c-13.2739,10.9658-74.7577,18.6826-74.7577-11.0659 c0-8.7341-7.1609-15.3096-25.1124-23.0598c-62.6241-27.0369-64.8306-75.8013-5.3744-118.7715 C1371.2462,2507.8696,1374.9183,2502.4094,1371.9307,2490.5081z M1538.5781,2555.5239 c-17.1256,11.9944-22.3204,11.6057-22.3204-1.6711c0-8.7832,21.0669-24.5837,32.7764-24.5837 C1557.1377,2529.269,1549.8174,2547.6519,1538.5781,2555.5239z M1510.2126,2848.345c-12.5679,0-1.5212-47.0889,24.6559-105.1023 c11.1375-24.6829,11.9951-25.2324,33.3411-21.375c12.0499,2.1777,22.7524,4.6719,23.7839,5.5425 c4.1914,3.54-29.0984,61.5869-51.765,90.2634C1540.8264,2817.6736,1515.1833,2848.345,1510.2126,2848.345z M1599.7373,3306.2778 c10.9088,30.7551,11.6619,38.781,5.6824,60.5654c-8.7501,31.8784-30.0729,35.0564-30.0729,4.4822 c0-42.123-47.6899-93.3833-20.3434-185.4731c7.7648-26.147,11.1858-30.6953,21.9158-29.1396 c14.9011,2.1619,22.5166,24.7615,15.1847,45.0679C1583.5111,3225.5781,1586.7266,3269.5986,1599.7373,3306.2778z M1553.6899,3025.6992c36.1274,0.2561,38.1506,25.8015,7.663,96.771c-36.6575,85.3311-40.8792,144.1321-14.6754,204.4258 c10.3044,23.709,15.7437,54.2109,16.571,92.9192c0.155,7.2236,6.0891,16.1958,13.2472,20.0266 c11.5566,6.1851,15.0073,4.5088,31.7225-15.3997c16.3105-19.428,20.9738-21.7966,35.7804-18.1758 c9.3645,2.2893,27.1315,11.0969,39.4835,19.5723c18.8287,12.9197,22.1697,18.3064,20.6809,33.3359 c-1.6877,17.0283-3.6244,18.2588-38.6952,24.5686c-44.3262,7.9778-61.3391,25.5862-62.4941,25.0088 c-46.25,33.2141-77.5721,29.9797-83.7472-8.6492c-22.501-140.7605-86.8984-147.9397-70.0065-280.7795 C1460.2285,3132.7593,1518.1281,3025.4453,1553.6899,3025.6992z M1625.9058,3006.5684 c-11.2168-16.0132-11.9677-42.21-1.4606-50.9304c4.2556-3.532,15.556-5.8518,25.1124-5.155 c18.7118,1.364,19.1613-0.3362,10.9803-41.5725c-3.2113-16.1865-2.0717-19.2036,7.2568-19.2036 c6.087,0,14.4338,5.3909,18.5488,11.98c6.2197,9.9568,12.689,11.7029,38.3518,10.3403 c30.0181-1.5947,30.9232-1.1741,32.8008,15.2446c2.3081,20.1838-8.2256,49.0112-24.5983,67.3162 c-8.8113,9.8521-18.4196,13.2947-37.1018,13.2947c-13.8661,0-26.8545,2.6587-28.8625,5.9089 C1655.3713,3025.3538,1633.8053,3017.8464,1625.9058,3006.5684z M1719.5015,2764.1443 c-3.9188,16.7961-16.9521,40.0405-16.3611,39.4495c-17.6998,32.6682-25.145,32.4604-29.2189-0.8149 c-3.0669-25.0439-1.7628-29.8218,11.3524-41.5891c8.1492-7.3125,20.0375-13.2947,26.4181-13.2947 C1721.327,2747.895,1722.6506,2750.6482,1719.5015,2764.1443z M1728.9771,2797.0684c0-15.0535,23.6353-12.5786,23.6353,44.645 c0,23.8865-2.5345,31.3721-13.1326,38.7954c-13.183,9.2341-24.829,10.8296-38.5696,5.2849 c-12.8694-5.1924-7.6869-33.6619,10.5049-57.7041C1721.0739,2815.3235,1728.9771,2801.3643,1728.9771,2797.0684z M1655.2191,3049.0779c5.0793-8.2192,63.6952-4.0596,107.3572,7.6182c20.9752,5.6096,25.6412,9.2563,24.2528,18.9514 c-2.2217,15.5149-23.564,16.9099-78.5337,5.1326C1664.9667,3071.4963,1647.7271,3061.2,1655.2191,3049.0779z M1816.7014,2566.1992 c-2.9805,5.6873-7.3197,9.8318-9.6423,9.2095c-2.3232-0.6226-29.2498-2.6162-59.8369-4.4316 c-62.6125-3.7161-62.6111-3.6714-1.1779-38.3872c35.8555-20.262,38.4658-20.8635,52.0203-11.9822 C1815.6511,2532.1311,1823.9352,2552.395,1816.7014,2566.1992z M1610.7997,2604.7998c0,5.4602,3.7537,7.3926,10.3405,5.3247 c96.1887-30.1956,165.9789-29.0364,176.1232,2.9255c8.9469,28.1902-35.0773,82.3708-89.0876,109.6387 c-41.4015,20.9016-47.6694,21.3032-61.3293,3.9375c-6.8263-8.6787-12.4113-17.7151-12.4113-20.0815 c0-7.4604-62.3579-3.7786-103.0251-23.4636c-24.1899-11.7102-26.9691-15.1313-26.9691-33.1926 c0-14.7144,5.5691-26.301,20.6809-43.0278c11.3748-12.5908,20.6809-28.3447,20.6809-35.0103 c0-11.25,43.0251-54.4004,54.2434-54.4004c6.9042,0,6.0155-22.2146-1.064-26.5898c-14.3933-8.8958-5.5785-32.6631,18.613-50.1875 c28.2371-20.4543,70.0519-24.1611,99.6869-8.8359c18.5704,9.6025,47.1841,47.2073,47.0839,61.8726 C1764.2524,2510.0637,1610.7997,2582.3745,1610.7997,2604.7998z M1637.4399,2067.1511 c-4.5713,30.4749-80.365,330.8972-80.365,327.6912c-9.9583,37.9214-13.8098,12.1521-83.3071,10.9299 c-18.4946-0.324-34.9156-2.6746-36.4908-5.2229c-2.4518-3.9688,14.4474-75.792,31.5818-134.2241 c9.0056-30.7166,82.6351-334.6139,89.2195-342.0087c2.5498-2.8629,22.34,22.1646,43.978,55.616 C1639.6602,2038.0665,1641.2231,2041.9197,1637.4399,2067.1511z M1414.5822,2409.8647 c-21.5491,11.083-91.6948,44.1248-83.8157,75.5178c2.7908,11.116,0.1321,17.3147-11.2709,26.2847 c-19.5737,15.396-39.5896,57.4358-39.5896,83.1484c0,24.835,10.9961,41.5969,38.4023,58.5344 c11.377,7.031,20.6859,14.5664,20.6859,16.7441c0,2.1775-12.1292,10.3938-26.954,18.2588 c-35.0685,18.6042-76.9626,65.3491-81.8328,91.3098c-2.1466,11.4468-0.7632,26.8198,3.1982,35.5134 c5.7782,12.6826,5.0397,19.646-4.2794,40.3276c-12.8066,28.4231-14.2528,76.0552-2.7308,89.938 c15.4374,18.5977,32.1058-2.3555,37.7098,25.5105c8.032,39.95,15.2361,45.8447-1.7195,61.6411 c-26.2439,24.449-50.1851,81.3037-61.0488,70.4399c-14.8629-14.863-101.2391,2.6479-158.0979,32.0505 c-23.2372,12.0161-30.1104,11.0452-47.9386-6.783c-18.2377-18.2375-37.2007-17.8628-83.4197-22.9211l-7.3355-26.5898 c-18.1595-65.8176-30.2657-56.1711-4.6127-81.8242c19.5701-19.5701,25.9752-40.3223,21.3127-69.0542 c-2.2202-13.6824,1.7087-25.9658,15.4457-48.2913c46.5414-75.6392,80.6023-229.5659,75.5648-341.489 c-3.321-73.7773-14.5906-131.7871-22.5887-177.5801c67.23-235.8345,122.4166-457.1904,134.4143-513.7528 c15.4618-72.8921-7.1257-81.9225,14.3235-88.7306c6.6777-2.1199,28.6166-19.2001,48.7535-37.958 c35.2236-32.8102,38.0706-34.2268,75.021-37.3247c59.9884-5.0286,96.7698-33.9318,115.5222-33.9318 c4.855,0,23.7788,23.266,42.0542,51.7023c46.3054,72.0505,120.1652,181.8694,120.1652,195.0454 C1539.9576,1909.215,1419.1378,2391.5508,1414.5822,2409.8647z M1272.2235,1659.0366c-16.5695,2.1638-25.644,0.0526-34.6328-8.0576 c-11.9324-10.766-12.3767-10.7018-21.8632,3.1449c-51.4617,75.1161-111.9535,88.2776-124.3776,98.9353 c-1.3344,1.1448,2.3767,11.0012,8.2473,21.9021l10.6744,19.8204c-121.471,489.1453-125.2643,509.9517-131.6251,509.9517 c-6.0276,0-31.6246-96.0552-44.1085-138.8574c-21.0733-72.2534-22.3637-90.4841-8.5755-121.131 c23.3755-51.9554,46.6828-47.1145,46.6828-126.8488c0-66.0237,28.0859-120.0625,75.0497-237.7958 c1.5718-3.939,8.2235-8.8646,14.7822-10.9463s22.267-13.1283,34.907-24.5477c18.0258-16.2854,22.9825-25.0463,22.9825-40.6204 c0-24.1971,8.4081-30.3679,80.3866-58.9902c28.9087-11.496,61.6554-25.0779,72.7705-30.1818 c23.0468-10.5842,23.2826-10.4054,52.2598,39.498c22.7498,39.1787,42.7539,56.9557,42.7539,67.2504 C1368.5377,1630.0176,1304.932,1654.7651,1272.2235,1659.0366z M915.3914,1933.5266 c29.9949-3.4391,46.7996,26.9331,22.1891,40.1039c-6.286,3.3641-18.4117,6.1166-26.9468,6.1166 c-14.3176,0-15.3751-1.713-13.6829-22.1581C898.5543,1938.2238,900.8783,1935.1914,915.3914,1933.5266z M901.7388,1886.5741 c0-28.0842,19.7901-90.3563,36.7729-115.7112c14.9207-22.2764,50.8944-54.0386,55.7285-49.2045 c4.8784,4.8784-36.5076,97.1082-51.0365,148.7753c-8.7053,30.9564-11.967,35.6903-25.7177,37.3226 C902.7998,1909.4996,901.7388,1908.0715,901.7388,1886.5741z M1278.0574,1485.6025c-1.5746,4.1034-29.058,17.6918-61.0741,30.1969 c-110.0908,42.9991-120.2532,50.212-120.2532,85.3505c0,32.475-43.6337,43.5061-47.3773,47.2498 c-35.0801,15.9117-58.1838,15.2013-78.186-2.4033c-22.7214-19.9978-20.3289-26.6864,9.5434-26.6864 c74.868,0,49.7642-66.5508,69.568-85.8865c8.323-8.1261,184.9646-97.288,192.7402-97.288 C1251.2108,1436.1362,1280.9353,1478.1003,1278.0574,1485.6025z M1097.6693,1477.498c-13.6865,0-27.0139-14.6639-22.9508-25.2517 c3.1188-8.1268,123.7161-69.2896,136.6215-69.2896c6.0336,0,21.2939,23.0215,21.2939,32.1221 C1232.6339,1417.3188,1113.3335,1477.498,1097.6693,1477.498z M1040.5963,1443.5381 c-72.0069,34.7568-119.9797,66.7886-129.335,42.4099c-8.4449-22.0066,10.8129-37.7294,93.481-76.3207 c108.7897-50.7863,99.7712-41.7141,128.4276-59.7974c42.3226-26.708,64.2333-24.4554,63.5806,6.5364 C1196.5066,1367.9359,1191.8002,1370.5627,1040.5963,1443.5381z M1111.5181,1264.7744 c-20.5574,7.8159-165.7462,82.7301-180.6254,82.7301c-6.056,0-13.9527-5.4969-17.5476-12.2144 c-19.3102-36.0812,57.1207-61.5122,185.5446-123.7205l13.6924,12.8628 C1130.5032,1241.2682,1130.0697,1257.7209,1111.5181,1264.7744z M1036.7958,1217.9417 c-22.4373,11.4469-78.2162,15.6398-91.3099,6.8638c-9.5749-6.4188-5.8845-38.3539-31.9388-105.2286 c-25.7769-66.1577-28.3634-94.7209-10.88-120.1392c16.5003-23.988,29.8031-33.1752,41.527-28.6765 c11.9215,4.5751,130.8021,194.0039,130.1183,207.3363C1073.537,1193.2366,1062.7349,1204.708,1036.7958,1217.9417z M890.0546,1436.1362c-4.5687,7.2382-25.4068,9.1921-113.6541,10.6549c-121.0458,2.0067-134.6494-1.4576-134.6494-34.2902 c0-31.6511,13.983-35.453,130.3931-35.453c93.3735,0,105.1378,1.1166,113.9073,10.8057 C896.8434,1399.7795,898.7202,1422.4086,890.0546,1436.1362z M842.6505,1566.6606c0,5.4977-65.7796,5.3787-140.8786,5.3787 c-0.748-17.2889-4.7993-88.3931-0.3195-95.5828c4.7865-7.681,44.0522-0.1559,71.6979,13.7413 C793.6293,1500.4922,842.6505,1554.4247,842.6505,1566.6606z M768.7908,1601.5828c112.7748,0,132.6075,1.3322,139.2679,9.358 c5.634,6.7881,6.0625,12.0629,1.5616,19.2037c-5.4241,8.605-22.2115,10.0454-133.2891,11.4353 c-117.5145,1.4707-128.1297,0.7437-140.981-9.6631c-11.918-9.651-12.769-12.6118-5.9796-20.7935 C636.2252,1602.8652,654.96,1601.5828,768.7908,1601.5828z M761.803,1660.9661c141.061-0.0873,169.1496,1.3157,180.119,8.9988 c16.6561,11.6655,16.5984,28.8749-0.1356,40.5958c-11.6478,0,37.1975,9.1979-174.3126,9.1979 c-153.2992,0-161.7549-0.5776-172.9955-11.8176c-13.3677-13.3669-14.3854-19.6134-5.8079-35.6412 C594.3563,1661.6765,603.705,1661.0663,761.803,1660.9661z M721.5209,2968.314c-57.2519-3.0366-62.0427-5.1465-62.0427-27.314 c0-32.0586,4.9473-33.5674,110.0729-33.5674c79.296,0,97.4993,1.6069,105.1774,9.2852 c13.3266,13.3274,11.4693,35.7861-3.8466,46.5139C857.8488,2972.3604,821.2512,2973.6055,721.5209,2968.314z M866.2872,3095.9475 c-4.7009,0,18.0637,6.4763-94.542,6.4763c-106.9511,0-102.0838,2.876-82.7192-48.8796 c20.4508-54.6611,20.6614-54.7937,83.7204-52.656c48.3785,1.6396,56.3835,3.4492,65.3412,14.7722 C847.525,3027.5884,866.2872,3081.0073,866.2872,3095.9475z M768.071,3131.7034c208.2242-0.6001,210.484-0.1528,210.484,41.6257 c0,17.9336-3.1938,25.4553-13.7435,32.3674c0,14.1277-361.2591,5.0828-367.5577,3.9534 c-19.3191-3.4658-32.3168-19.2629-32.3168-39.2751C564.937,3132.5544,566.35,3132.2825,768.071,3131.7034z M574.4797,3254.5757 l8.4874-16.2493h363.7695c30.9194,43.8662,53.0005,86.396,192.3276,123.5984c24.9077,6.6504,60.3895,17.7424,78.8489,24.6487 c40.9586,15.3254,85.6283,55.6643,85.6283,77.3276v14.8811c-206.2598-0.3269-687.4124-0.8125-893.7104-2.7158 c-189.3422-1.7476-181.5631,0.3306-157.6991-42.1306c16.1173-28.6772,48.2119-45.8323,156.2219-83.5034 c48.7478-17.0022,96.6092-34.8606,106.3589-39.6853C537.9354,3299.2539,563.8788,3274.8721,574.4797,3254.5757z M1785.1088,3475.0315c-76.8306-20.6609-26.4194-24.3406-91.9374-70.5454c-47.8231-33.7261-66.1505-71.7837-49.7721-103.3525 c7.5-14.4568,7.4747-18.6094-0.2013-33.4543c-11.2572-21.7708-11.2117-49.6956,0.1003-61.0068 c12.6429-12.6431,6.021-48.7336,14.5485-71.1628c5.5431-14.5793,6.9662-14.9177,56.7043-13.4814 c42.4893,1.2275,53.3944,3.5884,65.2208,14.1228c12.7567,11.3633,14.2014,17.4553,14.2014,59.8838 c0,25.9795,1.6143,51.4404,3.587,56.5811c5.701,14.8572-22.1573,11.6648-47.3406-5.4255 c-11.9728-8.1245-24.309-14.772-27.4142-14.772c-20.093,0,14.0659,71.8623,51.8796,109.1416 c41.2065,40.6252,35.0283,60.051,68.6418,91.7563c11.8538,11.1816,21.553,22.4697,21.553,25.0845 C1864.8801,3465.7151,1819.5776,3484.2998,1785.1088,3475.0315z M2260.7695,2871.1047l16.6345-19.8054l4.3608,17.1199 c4.146,16.2778-5.8018,51.5176-7.0383,52.7539c-12.8584,40.1985-22.8564,47.8809-31.7766,24.4187 C2234.4019,2923.1084,2241.2961,2894.2886,2260.7695,2871.1047z M2318.4312,3219.6658c5.7061-5.7083,8.9124-5.7632,14.4272-0.248 c9.5859,9.5859-1.1504,20.3252-12.999,13.002C2312.8794,3228.1055,2312.5886,3225.509,2318.4312,3219.6658z M2347.2964,3124.4011 c41.4651-36.6382,63.4653-34.0984,45.2627,5.2241c-5.8613,12.6624-13.3159,24.9771-16.5659,27.3645 c-0.5916,0-5.9492,4.3242-28.0676,4.4316C2318.9937,3161.5396,2318.791,3149.5894,2347.2964,3124.4011z M2690.1616,3509.1248 c44.0754,9.7402,128.3784,22.4929,170.3569,33.761c16.2493,4.3616,33.533,7.6636,38.4075,7.3384 c27.844-1.8582,39.8853,2.1934,45.9268,15.4529c4.8774,10.7083,4.0398,18.8486,2.917,17.7258 c-5.9768,5.9778-0.5813,3.4573-181.7932-26.1843c-95.2214-15.5735-112.052-20.2166-114.2275-31.5127 C2648.1311,3506.9155,2658.9785,3502.2322,2690.1616,3509.1248z M2947.1099,3451.2217 c1.5659-25.4797,0.8301-26.8589-15.885-29.7346c-21.0466-3.6216-24.2544-16.509-14.9302-59.9856 c9.3076-43.3958,25.7676-64.0862,50.9846-64.0862c38.9548,0,59.5376,33.2544,68.8669,111.2607 c4.0557,33.916,9.9185,60.0955,13.4563,60.0955c3.4485,0,16.1375-19.9424,28.1982-44.3164 c25.6016-51.7405,40.4631-58.1982,54.8247-23.825c23.53,56.3135-5.5886,139.0471-48.9368,139.0471 c-12.2363,0-36.8257,11.0972-35.8008,11.0972c-32.1746,16.2854-57.1602,20.5229-65.0381,11.0308 c-3.6252-4.3674-8.375-19.092-10.554-32.72C2964.8459,3482.4922,2944.2681,3497.4395,2947.1099,3451.2217z M4627.2573,2072.9006 c13.7627-10.1152,40.313-34.0653,51.8311-34.0653c12.8047,0,23.5063,15.4154,23.5063,33.8627 c0,17.5159-31.8774,48.4673-95.9658,93.1772c-59.6465,41.6113-852.709,640.8792-861.7241,647.0168 c-58.5464,39.8589-57.2803,66.5479-68.5559-0.6023c-3.3489-19.9373-1.9878-22.3652,21.5256-38.4075 c52.6145-35.8945,36.8748-30.8145,196.9712-151.3523C3933.1123,2593.7185,4564.4771,2119.0388,4627.2573,2072.9006z M4544.5146,2065.8125c11.3848,2.135,20.6997,5.8928,20.6997,8.3489c0,7.3108-890.5093,627.387-887.0464,627.387 c-44.6443,32.6536-49.3176,33.2378-132.2258,16.5376c-67.3298-13.5623-85.678-20.6057-85.678-32.8901 c0-10.73-5.3867-11.0356,106.1353,6.0234c30.7515,4.7043,58.6707,6.9353,62.0427,4.9583 c4.499-2.6382,755.4631-534.6055,776.5979-549.6804C4519.0854,2065.1479,4518.6216,2060.9548,4544.5146,2065.8125z M4465.4321,2049.2861c4.7109-7.2496,32.1475-3.3987,30.7959,4.322c-1.1162,6.3718-152.0972,111.6301-415.5383,289.697 c-491.7607,332.3914-461.6587,327.6953-537.7034,323.2764c-40.7517-2.3689-105.9673-13.7227-109.2407-19.0186 c-3.478-5.6274,36.1765-13.9663,43.8533-9.2217c2.9248,1.8076,22.3347,0.8765,43.1333-2.0686 c38.2942-5.4233,55.2092-14.001,158.0042-80.1204C4075.5466,2300.9172,4453.6123,2067.4771,4465.4321,2049.2861z M4456.2871,2022.3279c2.958,9.3198,0.9648,15.2727-6.9883,20.8785c-38.3159,27.0082-826.3887,519.1869-838.8394,527.7526 c-122.5674,84.3301-312.7893,50.6326-455.0347,5.1392c-296.2173-94.7373-508.2102-376.4617-826.2297-364.2485 c-86.6021,3.3252-126.8582,13.4001-208.4075,52.1567c-26.6179,12.6501-49.884,22.9998-51.7024,22.9998 s-3.3064-4.9399-3.3064-10.978c0-20.4226,112.1641-80.0569,183.1738-97.386c346.8987-84.6604,668.9465,297.5723,945.4126,374.8586 c52.9661,14.8069,228.0662,51.4119,279.4851,25.2273c64.9102-33.0505,957.9573-569.4368,971.7058-569.4368 C4449.1821,2009.2913,4454.0112,2015.1575,4456.2871,2022.3279z M4402.7207,2008.4163 c-69.1255,36.9224-168.1211,100.6575-824.2815,483.6606c-109.2712,63.7859-97.6484,61.6174-164.0623,64.1316 c-220.2866,8.342-387.8081-114.2732-576.3179-234.2283c-211.5232-134.6003-439.8975-246.2053-669.012-141.2695 c-27.3804,12.5427-41.9021,16.4001-46.0603,12.2412c-11.3208-11.3208,6.2397-34.9546,37.8894-50.9927 c61.457-31.1423,97.9111-39.6306,182.7366-42.5503c149.0725-5.1306,221.4197,18.1304,432.1814,138.9556 c125.6536,72.0337,382.2,294.4509,641.1035,276.7217c58.2019-3.9851,82.05-11.6641,128.7407-41.4492 c0.6055-0.3862,636.3079-371.4026,741.8596-434.9213c77.0449-46.364,88.354-51.6569,115.3413-53.9845 C4436.6851,1981.8129,4436.6426,1990.2975,4402.7207,2008.4163z M4145.687,1949.4889 c70.1187,16.796,145.3374,30.2589,169.0537,30.2589c26.0044,0,25.3477,6.3655-2.1294,20.6462 c-93.2935,48.491-639.0181,374.0366-657.3574,384.2563c-161.6792,90.0974-145.4385,93.282-206.6516,97.3479 c-98.1262,6.5183-189.1606-8.5098-287.0112-47.3804c-85.5381-33.9792-166.8369-82.355-419.2512-249.4683 c-108.178-71.6201-242.3601-116.7693-347.0334-116.7693c-32.2886,0-57.8201-2.3132-56.7368-5.1421 c1.0835-2.8291,166.8264-88.0959,368.3174-189.483c387.1963-194.8297,411.7844-205.2467,525.8857-222.782 c86.783-13.3367,180.8713-4.4158,277.7148,26.3329C3662.002,1725.4133,3956.3618,1904.1401,4145.687,1949.4889z M2849.1619,1555.79 c-7.2375-7.192-21.1448-43.3929-21.1448-55.0433c0-5.9188-5.6997-14.7533-12.6658-19.6328 c-10.9399-7.663-12.1575-12.5771-8.937-36.0726c2.05-14.9609,10.7668-44.795,19.3696-66.299 c14.5615-36.3972,14.946-39.6069,5.5635-46.4679c-9.4966-6.9431-9.4915-8.5098,0.0764-27.0918 c15.199-29.5181,49.2312-69.1639,80.8835-94.226c31.0481-24.5839,64.0781-32.8246,104.3169-26.0265 c76.9375,12.9985-50.7632,61.1085-88.5444,134.1056c-6.1929,11.9656-13.9585,23.4233-17.2539,25.4609 c-6.897,4.2621-8.2112,26.677-1.5618,26.6179c2.4373-0.0131,15.8499-11.9785,29.8062-26.5897 c37.8369-39.6128,25.7126-17.0913,52.8008-38.3981c22.0332-17.3319,129.8101-52.1788,139.8188-26.092 c17.522,45.6626-25.9578,101.1387-25.9578,133.3453c0,24.8003-12.4387,45.7365-45.6067,76.7607 c-36.8911,34.5081-67.0103,45.5381-87.5671,32.0686c-8.0005-5.2423-14.5469-12.1292-14.5469-15.3043 c0-12.5916-22.1719-4.7461-34.78,12.3074C2908.1807,1539.5687,2865.5015,1572.0258,2849.1619,1555.79z M2594.3926,1250.8816 c-4.5793-24.4106,1.7996-37.6565,37.8521-78.6072c57.9343-65.8068,12.0305-89.4968,122.6506-95.4126 c50.7849-2.7164,92.8564,6.2529,89.6965,19.1215c-2.4963,10.1613-34.9536,45.0851-65.0217,86.074 c-12.9551,17.6609-30.8865,32.2808-53.3979,43.5365c-35.5649,17.7821-40.1306,30.8822-8.3823,24.0494 c70.8398-15.2477,67.3159-60.1488,138.3267-84.9034c20.3291-7.0867,39.6062-11.2507,42.8391-9.2527 c14.2246,8.7919,4.0479,31.0856-29.1165,63.7847c-55.9026,55.1176-68.1577,113.2411-92.9299,122.6594 c0,3.6162-54.1426,11.7468-69.8491-3.96c-7.738-7.738-17.5586-8.8784-52.1243-6.0531 c-43.3186,3.5409-80.8569-4.2303-85.2302-17.645c-1.1914-3.6533,4.7332-14.8406,13.1658-24.8622 C2595.375,1274.5515,2597.5,1267.4453,2594.3926,1250.8816z M3102.1531,1185.9039c-18.3894,2.3594-27.0962-0.1031-43.3613-12.2655 c-11.1936-8.3693-27.655-15.2179-36.5818-15.2179c-20.7024,0-25.7031-8.1058-12.9001-20.9088 c8.1924-8.1931,17.9421-9.5383,52.8816-7.2959c57.8699,3.7147,83.3669,20.5656,67.9377,44.902 C3130.9436,1175.1178,3123.228,1183.2002,3102.1531,1185.9039z M3177.3608,1325.3976 c24.635-24.7648,28.8899-32.0009,23.9771-40.7782c-9.1934-16.4282,2.0125-30.8815,36.3352-46.8617 c49.2058-22.9104,90.5317-19.6978,145.7241,11.3293c66.825,37.5657,64.5781,57.4113-6.7258,59.4208 c-46.4902,1.3107-72.4021,11.0077-101.0605,37.821c-14.1567,13.245-21.79,30.7184-13.4187,30.7184 c1.5557,0,19.9905-5.6333,40.9651-12.5188c33.7095-11.066,42.4233-11.7628,75.0938-6.0083 c44.751,7.8829,96.2832,39.4164,102.0664,62.4567c9.5342,37.9877-33.0676,75.9651-102.7791,91.6215 c0.0173-0.5928-25.2568,6.0012-29.5435,6.0012c-7.3398,0.1342-16.4836-9.7483-20.2827-21.923 c-4.8225-15.453-17.208-16.7816-40.958-4.3949c-21.4287,11.1996-39.8926,11.1931-66.6814,0 c-15.4968-6.475-20.3979-11.6301-18.2573-19.2036c8.2119-29.0522,9.1172-28.1759-27.0771-26.2299 c-20.5173,1.1029-37.8052-0.9773-42.8391-5.155C3111.0676,1424.4052,3131.9106,1371.0872,3177.3608,1325.3976z M3159.1021,1258.8721c14.2,0,25.0679,22.8873,16.1323,33.9758c-8.3828,10.4025-14.9373,9.1986-22.0239-4.0436 C3143.5459,1270.746,3145.8828,1258.8721,3159.1021,1258.8721z M3438.5186,1173.3477 c-4.0818-43.7153,4.0442-51.9503,15.0417-15.2438c10.8086,36.0776,57.8398,125.2301,77.0715,146.0992 c21.3562,23.173,44.4907,38.7371,49.7556,33.4717c2.1775-2.1783,3.96-13.6793,3.96-25.5576 c0-82.4669,97.4531-172.5951,58.457-69.8326c-11.7988,31.0956-14.1401,48.0265-14.1401,102.2627 c0,56.6351,2.2192,71.3373,17.2539,114.2729c23.9685,68.45,104.5767,227.901,116.3418,230.1349 c6.0674,1.1526,12.4241-5.2279,17.5598-17.6277c10.075-24.3226,43.6252-61.8962,65.2568-73.082 c15.9548-8.2509,40.6216-11.5559,40.6216-5.4429c0,7.4502-82.4827,90.9377-82.6665,148.4824 c0-2.6842,0.2017,18.4764-7.4431,21.2781c-4.0623,1.4902-34.1438-9.8225-66.8464-25.1371 c-51.605-24.1669-62.4048-31.8558-81.7412-58.1975c-43.8896-59.7904-91.4045-64.2584-67.3804-88.2826 c10.7683-10.7682,24.4995-8.5928,48.481,7.6818c11.9729,8.1246,22.9797,14.7721,24.4604,14.7721 c15.1067,0-25.9492-79.8563-27.0527-87.2583c-6.8154-45.5511-97.2671-131.9065-175.8315-167.8701 c-47.394-21.6943-43.4817-30.9924,11.3877-27.0665C3557.3359,1338.0945,3450.301,1299.5293,3438.5186,1173.3477z M3607.2944,975.2461c3.6289,0,6.5977,3.623,6.5977,8.0511s7.8989,17.9905,17.5535,30.1392 c17.0125,21.4072,17.2402,22.5194,7.386,36.0797c-15.5286,21.369-23.4895,17.2924-26.7593-13.7045 C3607.4907,992.3848,3598.0293,975.2461,3607.2944,975.2461z M3653.4629,1293.4183c25.4795,11.0261,39.624,19.969,88.9456,19.969 c23.5618,0.0094,42.8391,1.7794,42.8391,3.934c0,2.1553-4.2146,9.9343-9.3652,17.2887 c-21.7434,31.0444-34.6792-29.6473-67.4106,73.5863c-0.5918,0-14.5449,45.6664-21.1345,45.6664 c-12.4338,0-26.8618-50.0331-30.3738-105.3346L3653.4629,1293.4183z M3108.0864,1496.3829 c15.9426-30.8302,54.032-35.057,70.1428-7.7834c14.0408,23.7687,47.6348,38.478,89.9949,39.4042 c79.6855,1.7435,48.9873,41.5664,159.5667,11.2832c37.6016-10.2972,71.4143-43.3562,78.3149-76.5681 c6.2854-30.2502,18.0576-32.3723,45.5713-8.2148c19.488,17.1106,56.3057,78.3995,56.3057,93.7306 c0,3.3424-8.7769,6.0769-19.5039,6.0769c-17.2793,0-20.9851,3.0503-32.4985,26.7484 c-16.5659,34.0977-16.3899,36.3488,3.7927,48.6764c18.4231,11.2539,38.2437,29.6523,38.835,29.6523 c25.7078,22.619,26.0278,33.9801,0.5793,20.5583c-104.4607-55.0917-298.592-82.8246-395.9595-56.5638 c-19.4988,5.259-49.8933,9.8168-67.5425,10.1299c-31.8501,0.5641-32.1316,0.4133-37.5759-20.1125 C3090.9009,1586.225,3096.6807,1518.4393,3108.0864,1496.3829z M4070.554,1459.9006 c15.7517,0.1559,64.2981,21.4448,70.0217,30.7062c10.7715,17.4272-65.7957,90.8741-65.7957,109.48 c0,19.397-25.6995,50.0714-51.0574,60.9413c-16.6401,7.1321-25.7798,14.7749-25.7798,21.5912 c-0.0396,18.8517-22.2813,47.6796-48.7607,63.1968c0.5925,0.5927-29.0269,15.6396-43.2083,17.7539 c-17.1453,2.5548-62.3162-4.4274-73.5459-11.3676c-21.9556-13.5691,20.7871-128.7197,99.0637-159.6927 c38.9368-15.4061,31.9114-27.6559-15.6484-27.2894c-32.0073,0.2482-86.1157,21.9128-103.4441,41.4188 c-37.9465,42.715-42.0117-23.5509-5.8259-94.9603c19.842-39.1576,33.4729-46.8783,68.4377-38.7738 c26.8704,6.2283,28.3972,5.8309,49.7952-12.9567C4013.8042,1381.8066,4038.0837,1459.5819,4070.554,1459.9006z M3909.0913,1341.595 c14.1165,0,17.6948,3.0309,20.9226,17.7264c4.7734,21.7362-1.2876,51.5277-14.071,69.1598 c-9.8845,13.6324-35.707,17.4762-64.9055,9.6603c-12.7417-3.411-13.667-6.0186-10.4539-29.4634 c2.7166-19.8154,1.6216-25.722-4.769-25.722c-8.7659,0-50.5669,62.1913-50.5669,75.233c0,15.978-5.7717,1.4253-21.072,73.965 c-4.075,4.0751-8.5879,82.2899-43.4441,25.8929c-21.6235-34.9893-13.4717-104.0696,19.897-168.5964 c6.9749-13.4874,13.6475-18.7651,22.8071-18.0352c23.9138,1.9049,26.3237-0.1644,36.4375-31.2976 c12.1597-37.4286,22.3889-49.8088,45.3167-54.845c22.0405-4.8406,32.772,3.9606,40.6926,33.3749 C3891.2466,1338.567,3894.3083,1341.595,3909.0913,1341.595z M3803.3354,994.105c30.1406,1.7116,32.2532,2.8339,34.0066,18.0742 c1.7859,15.5193,3.3223,16.2493,34.2109,16.2493c32.0623,0,69.2515,13.7205,92.4365,34.1027 c24.6978,21.7124-0.6665,72.5022-40.605,81.3099c-28.6196,6.312-31.7781,7.9962-31.7781,16.9396 c0,4.7504,5.9556,9.4872,13.2341,10.525c31.6013,4.5088,14.4766,43.3656-28.2205,64.0349 c-24.2339,11.7312-30.1147,12.464-50.6536,6.3107c-28.0886-8.416-34.8103-5.0902-34.8103,17.2208 c0,9.366-2.8396,18.7839-6.3098,20.9291c-1.5808,1.5809-18.627,4.7313-39.8853,6.167 c-38.6145,2.6075-73.9629-8.3649-76.9829-23.895c-4.1531-21.3545,13.0244-63.5646,35.7595-87.8693 c20.7566-22.1906,21.8486-24.8312,10.9688-26.5255c-17.2056-2.6797-81.3867,36.1301-89.387,31.1851 c-3.0359-1.8761-5.5193-16.0293-5.5193-31.4498c0-21.2731,4.4712-35.0908,18.5308-57.2627 c24.063-37.9501,40.4319-51.7916,91.144-77.0715C3764.6135,995.5635,3776.271,992.5679,3803.3354,994.105z M3528.0662,829.858 c6.199-4.5326,16.2544-8.2408,22.3464-8.2408c19.3069,0,32.2556-10.8021,36.1216-30.1342 c2.0615-10.3044,9.2773-27.6825,16.0352-38.6172c24.1091-39.0097,69.1807-19.6711,85.5728,36.7167 c7.0188,24.1438,13.457,34.3076,25.7644,40.6722c21.9324,11.3409,33.0093,29.5189,41.6548,68.3555 c12.3044,55.2726,8.5964,64.6458-34.3494,86.8335c-69.949,36.1389-89.9597,23.1954-94.3811-61.0516 c-3.0417-57.9595-14.825-68.4464-21.3799-19.0291c-6.082,45.8482-11.1614,52.1573-41.9915,52.1573 c-14.5103,0-26.5322-1.9944-26.7212-4.4316C3528.6338,847.2027,3507.896,844.6058,3528.0662,829.858z M3319.9272,1057.2903 c10.7637-0.9939,15.3953-2.9111,25.8928-4.327c4.8025-0.6464,4.4585-7.1538-1.2175-23.0583 c-10.5662-29.6105-10.6296-108.851-0.106-134.037c11.9985-28.7134,40.9321-37.6821,57.5085-70.0541 c20.0376-39.1308,57.6328-42.8477,66.7305-6.5977c2.1589,8.5992,12.4314,26.2212,22.8289,39.159 c17.2195,21.4267,19.0054,27.5505,20.0405,68.7211c0.6252,24.8579,1.2917,47.1913,1.4866,49.6285 c0.1926,2.4373,13.4072,4.4316,29.3674,4.4316c28.3604,0,29.2959,0.5763,41.3618,25.5006 c30.5337,63.0785-4.9141,185.1204-20.6594,209.3754c-12.634,19.4612-28.6079,16.3157-49.2058-9.6927 c-23.1506-29.2296-56.8572-100.3657-67.5022-142.4589c-18.0049-71.1974-37.2532-13.507-31.0493,93.0641 c1.749,30.0613,1.4324,54.6566-0.7041,54.6566s-14.6948-5.3375-27.9082-11.861c-23.4167-11.5615-51.5754-46.8796-67.3198-84.4359 C3310.2388,1093.2842,3310.5151,1058.158,3319.9272,1057.2903z M3242.1047,1102.757 c85.2041,26.6367,43.0154,24.3953,86.7781,76.2947l14.989,17.777l-47.5461,3.5813c-90.05,6.7834-57.6785,29.2882-146.9893,37.6572 c-74.8689,7.016-118.2041,26.1207-134.2051,26.5724c-12.2664,0.3462,2.1616-14.5601,31.7117-32.7618 c80.2646-49.4432,191.8391-43.1255,191.8391-61.1483c0-10.2378-116.1257-56.4186-129.9941-62.2166 c-150.0452-0.2998-152.3943-2.7072-211.1968,16.9612c-28.4116,9.5038-53.6714,15.2208-56.1338,12.705 c-5.8403-5.968,37.3232-43.8546,61.9988-54.4187c23.4766-10.0519,24.394-18.2177,2.9543-26.2961 c-73.5051-27.6958-100.2151-59.957-116.064-76.3085c58.7422,0,70.9373,28.0241,234.5637,71.0647 c89.1541,23.4497-16.24-54.8378-21.113-139.0162c-2.1177-36.5731,12.5239-29.6884,28.0491,13.1888 C3061.4592,1008.453,3133.4109,1068.7769,3242.1047,1102.757z M2885.6289,869.5876 c22.2817-12.4896-2.8745-99.1279,23.2891-155.7762c15.0188-32.5173,34.7102-44.8665,54.584-34.2303 c11.3689,6.0841,15.158,4.4287,32.0383-14.0003c20.7004-22.5995,58.5308-38.9548,90.1023-38.9548 c23.8179,0,35.0117,17.3774,41.1887,63.9418c3.6367,27.4171,6.085,31.3445,25.438,40.8086 c20.7905,10.1666,21.4106,11.4174,21.2334,42.9703c-0.3306,59.1189-20.595,39.6981-19.5896,117.6544 c0.3245,25.0671-1.3828,52.0572-3.7935,59.9791c-5.9353,19.5023-26.4099,40.9932-39.0549,40.9932 c-32.3306,0-70.6838-73.1752-72.6558-138.6238c-0.5317-17.6479-2.4792-33.5993-4.3271-35.4472 c-6.9084-6.9086-33.6946,21.1129-43.4219,45.4255c-12.3213,30.8019-8.5317,63.9747-6.0581,125.6903 c-20.2708,1.8377-55.7397,10.5015-91.2725-51.4578C2873.0618,903.2186,2870.2683,878.1976,2885.6289,869.5876z M2603.564,769.721 c13.908-22.8701,25.0215-23.7998,50.6677-4.2391c36.9104,28.1525,72.6348,2.9642,93.7573,26.3041 c7.1443,7.8945,19.8232,12.0874,40.2019,13.2949c38.2524,2.2663,48.4666,15.471,60.2959,77.9523 c4.8572,25.6542,12.6428,52.4617,17.3015,59.5723c4.7209,7.205,6.4238,16.2392,3.8474,20.4083 c-6.8596,11.0985-83.512-8.9455-114.4722-29.9351c-27.5938-18.7067-38.2803-20.8403-42.9846-8.5819 c-5.5071,14.3508,25.4133,52.7056,62.3479,77.3391c19.4915,12.9991,35.5127,26.6273,35.6016,30.2828 c0.4753,19.4359-129.3887,18.0011-162.5759,2.9263c-42.8015-19.4418-71.6819-66.2515-56.1851-91.0654 C2607.8679,917.5572,2565.4695,832.3624,2603.564,769.721z M2585.0173,1064.4318c24.6421-4.8052,39.6753-5.339,43.4692-1.545 c3.427,3.4269,4.0869,18.2538,1.6135,36.24c-3.4563,25.1334-9.3391,36.3004-33.7507,64.0709 c-35.8481,40.7805-42.127,55.6615-37.2554,88.2885c2.0623,13.812,1.5017,25.1124-1.2471,25.1124 c-7.1853,0-24.0237,35.4537-30.1147,35.4537c-7.5513,0-20.6636-61.2847-21.4924-100.4501 c-1.7224-81.3669-26.5168-89.7749-5.8777-112.5823C2514.8125,1083.052,2537.9009,1073.6189,2585.0173,1064.4318z M2342.1392,1232.2968c-0.2966-0.5935-13.3521,44.1357-17.8496,44.2449c-7.0703,0.0886-4.9519-59.6957,3.0437-85.8887 c10.2883-33.701,48.5305-84.5526,44.2939-88.7911c-1.6113-1.6121-14.5837-0.4515-28.8264,2.5786 c-60.8137,12.9371-179.4412,20.326-217.811,13.5675c-63.98-11.2701-57.0332-18.6749,17.5217-18.6749 c74.7114,0,82.7993-1.5587,282.7026-54.4526c104.4468-27.6363,140.2454-34.9675,147.7207-30.2524 C2632.7739,1052.3733,2398.3208,1047.2725,2342.1392,1232.2968z M2263.7427,1348.4465 c-21.5896-2.4517-26.3999-9.2729-26.5183-37.5959c-0.0859-20.6809,2.5115-29.6422,21.1448-72.9731 c9.1567-21.2919,28.9294-40.6556,36.6475-35.8857c2.9968,1.8516,7.2446,20.9016,9.4402,42.3326 c7.6694,74.8514,39.0364,119.3198,39.0364,55.3405c0-51.421,14.5442-88.4442,50.2437-127.8925 c36.4868-40.3195,50.3406-46.5146,69.4309-31.0458c11.7478,9.5181,13.3303,16.4194,13.7798,60.0179 c0.2791,27.0947,3.998,61.6633,8.2644,76.8191c10.9753,38.9801,1.9922,115.0729-13.281,112.5015 c-27.3496-4.6058-7.0706,63.6016-36.936,95.8289c-0.5933-0.2966-13.7793,15.2012-24.7468,15.2012 c-12.0608-0.041-41.4519-14.3479-55.3901-26.9619c-5.1387-4.6501-13.9175-8.4542-19.5103-8.4542 c-18.6123,0-43.2798-16.9497-50.6846-34.8284c-4.0234-9.7122-6.3921-31.7744-5.2639-49.0262 C2281.4253,1350.829,2281.2397,1350.433,2263.7427,1348.4465z M2057.6067,1356.2747 c-24.9446-10.4226-25.5663-14.7216-8.719-60.2524c17.6514-47.7041,30.1636-63.3345,58.0747-72.5461 c33.21-10.9607,40.7878-3.2855,30.6016,30.9933c-19.304,64.9639-24.1667,124.9113-12.6001,155.334 c4.855,12.769,7.6147,14.464,14.3926,8.8394c4.6121-3.8279,10.0288-14.4409,12.0369-23.5848 c4.1519-18.905,41.5452-65.282,52.6357-65.282c11.3074,0,17.9912,35.6644,36.9719,43.9974 c10.3428,4.5413,13.4709,12.5015,16.6755,42.4307c4.1648,38.8878,0.0996,52.9423-22.4819,77.7244 c-10.406,11.4196-16.0625,12.9097-37.052,9.762c-34.9934-5.2466-20.5439,2.8157-53.5076,25.8057 c-10.2512,7.1495-21.5522,12.9984-25.1125,12.9984c-10.8872,0-29.6135-22.3982-33.22-39.7345 c-1.8767-9.0198-7.6125-24.9142-12.7473-35.321c-9.1921-18.6338-8.623-56.47,1.3401-88.9266 C2078.3596,1367.2261,2075.7334,1363.849,2057.6067,1356.2747z M2091.1943,1125.9025 c32.7004,9.7115,118.4478,11.3395,166.6216,3.1643c40.3621-6.8501,50.9319,2.3435,36.7903,31.9995 c-13.6233,28.5682-52.6155,52.0123-92.0371,55.3375c-35.3403,2.9811-33.5151,0.6122-59.7656-27.6962 c-30.8413,12.5317-95.0883,40.4919-136.0112,24.4302c-22.8268-8.9598-11.2395-27.4401-59.3364-34.0565 c-54.4972-7.4957-57.4624-29.8018-11.0155-82.8788c42.5181-48.5865,18.3719-37.0388,60.6556-65.1139 c24.5261-16.2839,39.6804-21.7838,66.4744-24.1223c19.0881-1.6661,44.6372-7.2115,56.7751-12.3225 c38.281-16.1209,131.439-2.0983,162.2771,24.428c15.7495,13.5473,15.8223,13.9462,5.4587,29.7628 c-17.979,27.4401-44.7122,34.3479-142.4114,36.8025c-48.6807,1.2225-90.978,4.6913-93.9951,7.7084 C2042.458,1102.5621,2059.2886,1116.4276,2091.1943,1125.9025z M2225.3174,1264.6677c0,15.5175-72.436,88.7449-77.2058,88.7449 c-5.2749,0-11.4224-15.3816-11.4224-28.5502c0.0022-5.4213,7.8665-26.4758,17.4753-46.7874 c14.853-31.3958,19.7808-36.9302,32.8823-36.9302C2208.6829,1241.1449,2225.3174,1251.3691,2225.3174,1264.6677z M2280.7119,554.8696c1.1755,2.0925,5.4688,18.4283,9.5413,36.3026c17.3044,75.9478,57.1155,125.6838,159.4827,199.2405 c66.0156,47.4358,110.5215,90.5438,116.175,112.5259c1.8899,7.3543,1.6404,25.3527-0.5554,39.9971 c-4.6306,30.8785-16.5261,40.8483-56.4143,47.28c-14.6243,2.3579-53.6614,13.2495-86.75,24.2029 c-79.0205,26.1591-89.8867,25.9327-107.4321-2.2425c-18.6116-29.8875-49.3704-52.5974-87.5303-64.6263 c-29.8406-9.405-33.9197-9.384-71.4363,0.3779c-117.7,30.6248-141.1113,11.4333-186.9127,63.6281 c-43.6445,49.7353-98.0916,98.9963-98.0916,142.1314c0,19.5809,30.6571,44.6516,59.9769,49.0487 c22.1357,3.3186,27.5051,6.7722,32.9458,21.1865c7.6112,20.1644,7.6194,17.2216,84.6582,17.2216 c-23.6271,45.6573-43.9795,79.3083-44.3358,111.832c-0.3385,30.4917,0.4701,26.8693,35.1565,33.054 c-3.1676,62.5973-5.9324,76.5808,8.3217,100.7401c18.7944,31.8553,5.2185,30.6539,27.3442,63.2169 c12.8491,18.9087,18.1138,22.0276,36.9302,21.8682c38.1519-0.3203,49.6697-29.3292,96.9978-29.3292 c24.1489-0.0259,30.5022-2.8311,48.5835-21.4482c11.4412-11.7795,22.4458-26.597,24.4541-32.9257 c2.5129-7.9169,6.7129-10.243,13.4592-7.4559c19.5952,8.098,27.3784,5.2292,53.302,27.6709 c33.6917,29.1691,74.2065,37.0571,99.4634,19.3667c13.5098-9.4634,29.8845-47.7438,32.8628-76.8248 c1.0437-10.2006,9.4873-25.2849,19.8855-35.5287c13.7087-13.5048,19.0615-25.2712,22.1753-48.7479 c2.2576-17.0195,5.2612-30.9456,6.6741-30.9456c1.4131,0,13.9514,5.9507,27.8635,13.2234 c17.8196,9.3163,38.3901,13.8524,69.6106,15.3506c24.374,1.1699,46.8423,4.5261,49.9292,7.4574 c7.4697,7.0918,60.2505,6.7975,85.6211-0.4789c11.1382-3.196,21.5674-4.4915,23.176-2.8831 c1.6091,1.6093-1.5386,17.0868-6.9944,34.3942c-13.9846,44.3624-13.313,95.3354,1.3906,105.634 c6.2205,4.3566,13.2234,18.468,15.5618,31.3561c5.3196,29.3248,17.4236,53.6814,30.2417,60.8547 c18.1016,10.1305,66.6792-11.5696,96.1685-42.9602c16.4844-17.5469,25.3159-18.9094,36.3567-5.6067 c10.241,12.3392,54.0422,7.8282,86.9397-8.9548c12.8196-6.5392,24.9661-10.2322,26.9937-8.2047 c4.8892,4.8887,10.0012,106.0198-23.0562,134.1987c-19.3333,16.4779-808.9768,410.7339-808.3857,410.1428 c-107.0183,54.1907-109.0935,55.1052-112.231,49.4756c-1.2783-2.2959,0.3159-26.7744,3.5437-54.3984 c15.0266-128.597-23.7646-299.2102-91.0872-400.6189c-22.655-34.1244-13.2576-26.1331-27.2085-43.3555 c-89.6163-110.6326-143.476-156.0278-259.0227-218.3143c-129.7614-69.9495-254.6213-174.7498-314.6503-264.0999 c-51.9828-77.3745-95.5012-180.0043-95.5012-225.2244c0-45.1715,21.8674-38.6121,124.0853-77.4611 C1469.6649,844.9566,2275.7664,546.0593,2280.7119,554.8696z M2148.5032,563.4284c0,12.4583-141.0438,52.4374-426.7181,160.9774 c-73.3143,27.8556-84.2268,30.2301-90.7126,19.736c-4.7828-7.7388,3.6461-13.7789,35.8612-25.696 c332.5399-123.0153,382.9651-140.18,424.6575-157.5678C2121.2346,548.515,2148.5032,549.7368,2148.5032,563.4284z M2085.8452,526.2523c4.7727,4.8485,3.6924,8.719-4.0276,14.4208c-12.1733,8.9916-131.631,56.1007-284.8898,112.3478 c-168.5876,61.8715-204.6168,89.9819-208.6014,55.652c-1.4836-12.7892,1.0581-16.0307,14.7721-18.8365 c25.4753-5.2128,41.8754-19.3552,32.9458-28.4103c-5.7776-5.8591-18.4045-3.0302-62.0427,13.9008 c-73.8862,28.6663-158.1932,58.3131-158.1932,64.5817c0,2.6912-5.5272,4.8932-12.2836,4.8932 c-13.1559,0-253.6138,84.2075-253.6138,97.9465c0,34.3668,74.3978,189.6639,134.2441,280.2186 c40.1292,60.7198,129.1049,177.4106,148.6793,194.9915c14.0365,12.6058,126.1627,147.33,154.0349,177.0383 c130.3989,138.9895,270.057,374.5507,322.3097,543.6361c24.3285,78.7269,33.0049,142.0983,23.0193,168.121 c-3.6858,9.6047-15.0317,12.3896-22.0167,5.4048c-14.8452-14.8452,27.7365-82.6965-95.6182-319.6294 c-196.2539-376.952-365.4397-393.5243-574.3617-760.7012c-65.6774-115.4263-138.3346-306.8054-122.1221-321.6698 c14.3616-13.1621,368.6367-127.399,368.6367-143.882c0-3.0049-4.653-3.6028-10.3405-1.3286 c-10.634,4.2531-309.3519,102.4676-363.2148,115.6838c-39.842,9.7764-42.8519,15.3455-34.1012,63.0886 c5.5396,30.2207,12.8931,47.4235,30.2236,70.7054c12.5966,16.9222,22.9032,33.6144,22.9032,37.0939 c0,11.1151,59.2001,136.8898,93.2126,198.036c55.0115,98.8978,149.6761,227.7329,210.3888,286.3315 c36.457,35.1868,35.0201,61.5551-2.2664,41.6005c-49.6503-26.572-253.6697-361.6106-292.4891-422.4727 c-41.5718-65.1774-49.2622-78.8055-72.5059-128.4831c-25.6016-54.7172-46.4714-127.9249-40.7321-142.8809 c4.1997-10.9476,10.0598-7.4943,201.8868-71.5897c258.2001-86.2727,173.6902-47.8076,242.2621-70.774 c284.3687-95.2465,331.5446-131.9144,350.748-112.4127c8.9836,9.1222,8.9303,10.4047-0.7351,17.5786 c-16.2317,12.0483-128.4319,42.3177-128.4319,50.8411c0,9.2744,24.5211,6.5421,59.172-6.5912 c47.9258-18.1651,71.3535-22.6329,79.6855-28.6937c3.2494-2.3637,46.7527-18.3338,96.6733-35.4883 c77.9429-26.7845,92.8672-30.2322,105.6449-24.41c25.9337,11.8162,22.0336,7.6816-176.7456,82.332 c-70.4313,26.4505-132.0953,48.0907-137.0319,48.0907c-11.2825,0-18.5942,11.1685-11.7787,17.984 c4.2996,4.3004,175.9918-55.7581,332.3846-116.2695C2069.3997,523.4637,2081.0334,521.3648,2085.8452,526.2523z M1897.2172,2334.0164c-5.8353-9.4424,8.7803-23.3762,24.5188-23.3762c16.8242,0,17.8925,6.5076,3.243,19.7649 C1924.3879,2330.405,1906.5503,2349.1167,1897.2172,2334.0164z M1575.3461,1624.7009c0-2.9659,6.4-5.3925,14.2217-5.3925 c15.3506,0,34.9214,21.1563,93.411,100.9781c105.3549,143.7795,168.0366,271.4152,196.1873,399.4851 c11.1815,50.8713,11.8025,73.7844,2.2577,83.3293c-15.756,15.7559-19.6213,9.8948-28.649-43.437 C1803.3823,1867.9131,1575.3461,1642.8235,1575.3461,1624.7009z M1536.0067,1668.7394 c-39.0161-59.697-42.1069-67.1573-27.8253-67.1573c38.5051,0,247.6361,290.9128,294.8688,436.8191 C1837.7319,2145.533,1826.9236,2113.8467,1536.0067,1668.7394z M1860.991,2286.7646c5.1976,5.2747,4.0846,8.9792-4.6279,15.4097 c-14.5592,10.7444-29.459,10.802-38.3013,0.1479c-5.6196-6.7722-2.9104-9.6338,14.5924-15.4099 C1849.1199,2281.4797,1855.75,2281.4451,1860.991,2286.7646z M1854.1047,2318.6602c2.593-13.1736,18.7904-22.5598,30.9066-17.9111 c12.6873,4.8684,3.5496,13.709,3.5496,15.7134C1880.5553,2331.4207,1851.2253,2333.2915,1854.1047,2318.6602z M964.0685,658.5741 c94.7482-24.3663,932.8038-262.0719,964.1216-271.2579c73.9152-21.6806,68.9656-22.852,93.9144,22.2201 c28.6959,51.8408,39.7252,75.2871,36.7953,78.217c-3.6521,3.6521-123.6377-38.0578-164.6335-52.0211l-74.9525,20.6657 c-77.0996,21.2572-105.3484,38.8856-52.8274,32.9652c26.436-2.9797,53.4023,6.9561,44.1063,16.2522 c-11.3474,11.3481-326.3561,111.0106-374.1042,118.3591c-101.074,15.5587-418.583,132.645-447.2642,132.645 c-11.783,0-24.679-15.3087-19.6935-23.3764c0.3652-0.5909,635.5631-201.1591,656.3453-201.1591 c4.7064,0,8.5581-3.9888,8.5581-8.8633c0-22.2444-13.1384-4.3776-582.0197,148.1578 c-100.7844,27.0259-123.4858,41.7208-138.6931,23.3973C900.8278,679.2391,910.3561,672.3868,964.0685,658.5741z M866.7214,703.4414 c13.6339,0,21.7023,9.1056,58.9037,66.4743c858.2607,1323.5554,625.8821,964.455,712.2859,1099.2241 c118.2267,184.4147,227.9736,330.1932,208.7666,380.7113c-8.0879,21.2708-15.0917,25.1421-45.7069,25.248 c-14.0248,0.0498-30.3383,2.679-36.25,5.8433c-33.4232,17.8872-10.2098,74.9675,61.9237,152.2705 c107.7244,115.4443,169.2449,139.5571,202.6465,79.4275c8.9043-16.0293,19.2975-26.1536,29.5441-28.7761 c32.0017-8.1909,369.9749,75.2498,799.9749,154.7737c-27.1775,19.5173-48.9407,38.5227-73.1196,37.6104 c-25.0457-0.9397-236.2778-46.0759-280.7854-55.3933c-9.3928-8.3179-54.7375-50.2249-63.9224-50.2249 c-3.9636,0-17.0334,6.6689-29.0437,14.8188c-21.5659,14.635-22.2915,14.71-58.4355,6.0249 c-59.9539-14.4055-181.7981-39.9221-219.1841-45.8994c-39.8269-6.3674-59.2998-0.5366-68.9514,20.6462 c-9.7561,21.4116-41.537,39.8638-68.6613,39.8638c-135.3751,0-401.545-312.5994-273.1254-373.251 c61.4763-29.0317,41.3115-56.4734-86.1101-251.8198c-700.4673-1073.874-469.8137-732.3539-679.6322-1050.0823 c-110.9694-168.041-121.0956-184.7526-121.0956-199.8334C836.7431,713.2452,847.3699,703.4414,866.7214,703.4414z M644.4544,543.2574c1.6345-4.5203,5.4342-44.1143,8.4427-87.9876c6.7275-98.1102,14.2686-118.6425,56.2889-153.2538 c24.5477-20.2193,32.6219-31.0293,35.3094-47.2706c6.2825-37.971,3.8243-57.575-11.382-90.7913 c-14.4742-31.6157-14.7093-33.9952-6.7607-68.4031c8.9988-38.9512,23.5452-65.717,35.7162-65.717 c9.0515,0,18.2675,18.5156,33.8214,67.9515c14.9546,47.5303,14.3328,56.0985-7.0319,96.8566 c-43.4127,82.8182,19.5115,103.8535,32.1667,138.6087c5.6238,15.4428,13.5446,158.5216,19.4252,212.1278 c3.1282,28.5184,2.2367,33.9758-5.5511,33.9758c-5.1024,0-10.9911,2.7719-13.0842,6.1591 c-4.6636,7.5466-2.9923,199.5564-2.7618,253.8301c-76.7468,0-116.4147,1.3948-119.9791-7.8902 c-4.3419-11.3127-3.015-267.3042-4.071-278.688c-0.3008-3.2502-4.5138,1.4036-9.3624,10.3404 c-4.8485,8.9368-12.658,16.2493-17.3536,16.2493C657.3201,579.3553,640.5731,553.9896,644.4544,543.2574z M624.0245,927.6833 c0-14.9657,31.88-44.938,42.4683-55.841c149.9186-4.4733,193.1426-8.098,226.4181,23.2855 c11.3553,10.709,20.6462,25.14,20.6462,32.0687c0,12.5144-0.9535,12.5974-144.7663,12.5974 C626.7964,939.7939,624.0245,939.5623,624.0245,927.6833z M639.3924,1248.1948c1.2637-108.8511,60.7028-164.7076,35.9514-244.5392 l-8.5964-27.7264l17.9277-6.2493c30.4371-10.6116,76.1072-7.5425,104.8709,7.0449c21.7275,11.0192,29.446,19.8688,45.0945,51.7023 c10.3845,21.1238,27.7352,66.3265,38.5582,100.4501c16.3589,51.5782,19.6776,71.1852,19.6776,116.2465 c0,60.15-8.4968,79.6769-41.7535,95.9579c-21.1101,10.334-121.4152,14.1698-150.9954,5.7732 c-11.7664-3.3396-30.3794-15.3469-41.3618-26.6827C639.0613,1299.8364,638.8016,1298.8765,639.3924,1248.1948z M600.3027,1425.5369 c13.908,1.625,14.7792,3.6757,13.6245,32.1566c-1.0192,25.1342,1.2919,33.1471,13.2949,46.0985 c7.9905,8.6217,14.5283,22.187,14.5283,30.1436c0,17.2461-7.5253,17.7734-36.3517,2.5441 c-25.8035-13.6324-46.3712-44.5874-46.3712-69.7902C559.0274,1443.7344,579.6932,1423.1299,600.3027,1425.5369z M557.8271,1548.562 c3.8686,0.1477,19.4307,12.8363,42.9429,32.3463c-9.2255,21.9427-20.2792,50.0365-27.1335,50.158 c-11.3539,0.1125-32.363-18.297-32.3038-28.3418C541.3839,1587.1648,553.1943,1548.3845,557.8271,1548.562z M534.3123,1637.1259 c30.4448,0.6838,17.2941,59.0646-4.4316,32.8888C522.8279,1661.5156,526.1386,1636.9426,534.3123,1637.1259z M559.7956,1726.7443 c42.6464,44.1583,54.7944,61.1917,49.6163,69.5695c-5.9413,9.6141-9.2167,7.7604-54.8168-31.0228 c-33.6836-28.6483-42.839-39.8579-42.839-52.4524C511.756,1685.1243,522.6447,1688.2756,559.7956,1726.7443z M485.7094,1767.0293 c10.3398,0,45.5746,38.5471,105.8165,79.5795c43.0244,29.3054,48.8828,39.5632,49.8839,87.3445 c0-2.1078,0.7462,16.2721-7.0449,15.7599c-19.6336-1.3011-132.05-83.9772-154.8731-113.9008 C457.6317,1807.1533,461.2591,1767.0293,485.7094,1767.0293z M408.961,2180.8767c17.7488,6.7476,19.4424-4.9026,2.7863-19.1648 c-12.8253-10.981-10.2914-37.0225,3.1023-31.8833c10.6016,4.0681,17.1906-7.6292,8.9426-15.8765 c-3.6158-3.6165-6.5753-14.3088-6.5753-23.7607c0-15.3809,1.5508-16.7959,14.7721-13.478 c17.2144,4.3206,18.8322-2.5542,5.4183-23.0259c-13.2855-20.2755-6.2276-39.6588,12.7099-34.9055 c16.0949,4.0393,19.0327-4.1755,5.5071-15.401c-4.8745-4.0458-8.8633-16.2703-8.8633-27.1653 c0-22.7761-0.0831-19.8276,37.5938-12.2909c-17.0502-27.5873-27.4374-39.9818-22.826-60.9788 c2.1429-9.7577,5.1947-17.741,6.7802-17.741c4.7372,0,45.4137,38.0104,117.751,86.1426 c39.4821,26.2694,49.7822,36.0675,49.7822,47.3507c0,21.408-14.7526,18.0244-66.791-15.3174 c-25.3607-16.2493-48.5762-29.5435-51.5897-29.5435c-3.0136,0-7.0954,7.3125-9.071,16.2493 c-6.801,30.7645-15.9006,52.4669-25.5598,98.973c-7.3332,35.3069-21.5558,82.5674-28.9736,108.0747 c19.1341,17.8796,38.4213,37.2678,77.104,62.1914c33.3749,21.5039,38.9736,31.4131,30.3888,53.7854 c0.6821,0-7.5254,21.1902-37.7741-2.4712c-8.1246-6.3547-16.9121-11.6157-19.5283-11.6865 c-6.8645-0.1897-71.8321-44.9697-95.8937-66.0962c-13.9758-12.27-20.4811-23.1067-20.4811-34.1121 C387.6728,2177.7505,391.7459,2174.3315,408.961,2180.8767z M349.9744,2256.313c5.4537-8.8242,23.9686-4.8462,35.1984,7.5613 c29.9723,33.1201,125.7405,89.7947,159.0825,110.0881c-5.6699,70.0642-7.5389,62.7373-8.4109,77.0146 c0-1.1401-0.2437,7.3948-4.8839,7.2151c-4.881-0.1863-61.752-30.4834-66.4743-35.4126 c-14.5583-15.1917-103.0169-57.4937-117.663-96.0149C341.355,2312.3806,343.3854,2266.9739,349.9744,2256.313z M118.6451,3252.6064 c7.5411-18.0488,10.2193-19.9734,20.2921-14.5823c6.3827,3.416,13.1088,6.2109,14.9474,6.2109 c7.5029,0,2.5664-14.8369-9.0508-27.2029c-9.5889-10.2078-11.4794-17.3513-8.3555-31.5752 c3.7846-17.2317,5.3-18.1448,24.2109-14.5977c24.1078,4.5227,25.3578-0.2344,5.0166-19.0859 c-10.6333-9.8552-14.6018-18.875-13.2949-30.2222c1.703-14.7896,3.7594-16.0259,24.0205-14.4412 c25.6607,2.0066,28.4435-5.1189,7.386-18.9158c-10.5121-6.8877-14.7721-14.9749-14.7721-28.0425 c0-17.6868,0.7617-18.24,20.6809-15.0071c25.3765,4.1177,27.2151-5.0188,4.6321-23.0259 c-14.4064-11.4873-15.3311-14.3711-9.0414-28.1768c5.9709-13.105,9.6567-14.8506,24.912-11.7996 c22.0348,4.4065,23.4023-4.5317,3.1326-20.4761c-15.3816-12.0989-18.5855-27.2771-8.9534-42.4177 c4.4742-7.0332,7.9191-7.4502,16.6871-2.0195c6.0776,3.7644,14.3948,4.7771,18.4824,2.2502 c5.4551-3.3711,3.2227-8.498-8.3908-19.2671c-11.5977-10.7544-15.3022-19.2463-13.8705-31.7944 c1.7434-15.2764,3.9873-16.9641,20.823-15.6665c24.4626,1.8853,29.2246-6.4832,10.6246-18.6707 c-10.4292-6.833-14.7216-14.9663-14.7216-27.8933c0-17.4675,0.8396-18.0906,19.6264-14.5664 c27.6919,5.1956,31.4556-2.5144,9.8399-20.1565c-15.5511-12.6912-17.8542-17.7424-14.3876-31.553 c3.8625-15.3872,5.5951-16.1936,27.0225-12.5742c17.9393,3.0315,22.896,1.9922,22.896-4.7974 c0-4.7664-7.9768-11.97-17.7265-16.0083c-18.4471-7.6406-20.0151-11.5334-13.8784-34.4519 c3.6562-13.6526,8.2667-14.2095,33.0821-3.9939c16.3149,6.7175,12.7575-11.79-4.4316-23.0532 c-18.6324-12.2092-21.7744-50.7688-4.1359-50.7688c19.2691,0,17.2312,16.6487,34.0876,7.2166 c9.1878-5.1421,7.852-7.4697-11.3755-19.8162c-18.1621-11.6611-21.2038-16.4497-18.2862-28.7622 c4.8622-20.5193,12.9082-27.572,21.5724-18.908c14.9932,14.9932,49.0491,4.1306,10.5979-17.7473 c-18.9931-10.8079-21.0956-18.6123-11.682-43.3713c10.0758-26.5024,10.2633,0.0493,36.1353-3.7205 c12.5728-1.832,12.7258-2.4517,2.9883-12.1409c-22.0083-21.9014-30.6312-12.0935-24.9293-42.4885 c5.6167-29.9399,17.1177-32.0981,43.5928-8.1794c53.3518,48.1997,110.0482,75.7893,151.879,97.2952 c8.3553,179.1089,7.3444,227.7231,75.4386,373.6382c-13.9639,57.4751-35.3405,148.5142-55.6535,210.3716 c-25.2999,77.0491-22.0775,113.1216-38.512,162.4929c-12.9299,38.8445-17.8794,41.8154-128.9938,77.4255 c-42.2483,13.5403-87.6847,30.9067-100.9695,38.5935c0-0.5911-23.5721,13.9629-35.453,13.9629 c-23.7695-0.0254-132.4293-82.4302-132.4293-100.4314C109.9571,3276.2324,113.8665,3264.0425,118.6451,3252.6064z M90.0465,3447.0178c-32.6154-23.0872-45.1912-41.5537-49.3335-72.438c-3.7139-27.686,8.7017-51.4556,29.6184-56.7058 c10.2186-2.5642,19.6105,2.5413,39.5312,21.491c22.8967,21.7808,85.4551,66.1555,100.6708,71.4087 c3.2921,1.1377,3.4273,8.5728-12.8318,63.908C138.533,3473.4163,130.161,3475.415,90.0465,3447.0178z M148.3659,3643.0811 c-0.5949-19.2737-4.2293-109.2097-0.515-124.0854c2.9306-11.7383,7.1538-11.8054,628.0685-10.0967 c343.8143,0.9465,628.5294,2.8904,632.6984,4.3206c8.9183,3.0598,6.5022,45.585,4.2375,135.769 C203.6643,3649.6157,285.0055,3648.2427,148.3659,3643.0811z M515.012,3928.1821c2.306-10.562,11.5183-29.8398,20.4717-42.8391 c20.7018-30.0547,124.4727-130.6643,159.5817-154.7192c45.3433-31.0676,93.9743-46.4514,102.6205-32.4626 c3.9808,6.4412-12.1329,37.5642-24.1843,46.7117c-21.9081,16.6318-25.8115,24.7556-69.7057,54.5354 c-42.4697,28.8127-58.8121,42.6501-116.118,98.3181C530.8342,3952.9441,507.468,3962.7378,515.012,3928.1821z M2651.6357,3747.7939 c-55.5352,24.1262-44.6689,37.5083-109.3911,49.4858c-102.1118,18.8999-298.8638,87.4507-562.1416,100.0894 c-64.6877,3.106-99.0017,7.4136-189.0825,23.7371c-105.8071,19.1733-334.2565,25.1377-476.975,12.4531 c-121.0872-10.7627-118.9984,0.3252-118.1759-2.9651c-163.1235,24.9512-136.4756-13.114-284.3941-22.1135 c-36.2269-2.2036-69.2412-6.6841-73.3641-9.9575c-5.2164-4.1409-10.608-3.2061-17.7265,3.0706 c-13.7016,12.082-42.034,14.4163-62.5151,20.2236c-8.8784,2.5166-10.1861,0.7739-6.9879-9.3047 c5.1522-16.2334-0.1565-15.6499-21.5731,2.3708c-32.531,27.3726-59.2585,14.2839-31.0199-15.1904 c18.3345-19.1365,15.088-30.2595-5.101-17.4746c-40.7415,25.802-63.2509,27.8887-63.2509,5.8647 c0-14.8159,9.4973-23.2156,77.2742-68.3359c68.8686-45.8491,98.4617-82.9741,134.912-123.3101l40.1508,21.3496 c93.851,49.9026,322.9529,88.0647,536.4924,89.3645c158.1196,0.9629,212.8427-7.376,304.1136-46.3423 c97.655-41.6914,144.2794-88.0454,143.4542-142.6206c-0.4141-27.4055-15.6542-51.0898-37.2922-57.958 c-11.7405-3.7253-18.3591-16.9287-14.0796-28.0813c3.3251-8.6648,44.7699-28.0237,51.3986-24.0076 c2.4373,1.4773,4.4316,8.8914,4.4316,16.4766c0,24.5276,32.391,24.2173,53.8971-0.5142 c40.0065-46.0085,64.2477-183.1797,46.2031-261.447c-7.4978-32.5217-2.4574-38.033,14.9084-16.3035 c74.887,93.7073-17.4528,255.666,20.1766,289.718c19.3905,17.5483,38.225,8.2351,67.4899-33.3728 c31.1377-44.2695,73.5273-137.6208,95.7207-184.6047c-0.458-70.7266,3.0205-160.0674-41.7283-261.3496 c-16.8464-38.1296-9.1929-45.7002,17.5439-17.3506c30.3606,32.1907,49.2053,68.8799,58.1746,113.2595 c4.5188,22.3586,11.387,41.7095,15.2632,43.0012c3.8755,1.292,11.0337-7.1919,15.9053-18.8523 c4.8723-11.6611,12.717-21.2017,17.4343-21.2017c10.2358,0,21.8442,19.5737,18.1433,30.5935 c-3.616,10.7666-7.2537,62.2495-12.3594,79.5298c-5.6208,19.0276,4.25,20.9089,41.8474,7.9731 c18.7644-6.4556,35.0303-11.7375,36.146-11.7375c5.6536,0,0.8367,15.1602-7.8757,24.7871 c-16.8711,18.6418-2.5251,24.033,36.739,13.8049c39.3711-10.2539,103.1606-12.1423,103.1606-3.0518 c0,11.498-37.4399,28.6245-90.9116,41.5847c-106.5681,25.8301-194.9063,89.0066-234.2925,167.5583 c-20.5027,40.8909-21.6992,57.3557-6.0142,82.7344c16.5032,26.7031,8.7551,34.7937-34.4763,35.999 c-62.9429,1.7549-151.7303,56.2761-195.3541,119.9575c-23.8934,34.8833-61.7871,40.8945-55.2063,58.7268 c6.6323,17.9731,14.9921,18.761,42.6796,4.0212c21.954-11.687,35.6333-14.3479,74.2312-14.4424 c119.0298-0.29,302.9314-35.3838,370.9124-70.7813c42.376-22.0642,59.2622-22.7271,68.3938-2.6853 c10.7637,23.6208,2.5049,25.5374,17.2727,43.7732c9.2888,11.4707,13.9209,12.4141,42.8391,8.7246 c28.24-3.6021,35.5942-7.4963,57.0015-30.1794c20.6292-21.8582,27.05-25.4236,39.9612-22.1833 c19.2449,4.8303,28.8142-2.8975,45.0051-36.344c14.8225-30.6182,26.6206-32.9924,67.7849-13.6431 c20.5503,9.6594,26.5254,15.6499,26.5254,26.5896C2703.9346,3715.2998,2685.7847,3732.9585,2651.6357,3747.7939z M4978.75,2793.4856c-26.356,46.9617-831.8237,675.4526-940.7717,774.9973c-28.5925,26.1248-126.8374,98.1384-140.4602,112.8064 c-6.2229,6.6982-72.3337,57.2522-118.1765,96.6895c-45.0037,38.7146-46.5891,39.0054-129.9941,23.9287 c-831.1299-150.2437-1010.4099-167.1094-1010.4099-182.4011c0-13.6094,12.9941-44.3774,18.7412-44.3774 c20.1304,0,1013.6462,170.1431,1061.0952,178.9172c168.4697-122.6016,582.8081-458.738,822.8066-644.4092 c274.2129-212.1409,313.3721-246.9785,328.374-292.1445c12.0327-36.2283,38.7061-57.8528,71.0293-57.593 c12.6919,0.103,28.3594,4.1799,34.8154,9.0593C4986.5957,2777.1182,4986.8325,2779.0864,4978.75,2793.4856z"/> <path d="M1681.7072,3852.4111c0,8.2046,3.546,12.251,12.2504,12.251c8.4565,0,11.6381-3.1821,10.2727-10.2725 C1701.2643,3838.9863,1681.7072,3837.2683,1681.7072,3852.4111z"/> <path d="M1741.78,3829.2092c-15.3593,0-19.2102,5.7529-12.3868,18.5034c8.6729,16.2058,23.2198,13.8682,23.2198-3.7314 C1752.613,3833.5962,1749.3961,3829.2092,1741.78,3829.2092z"/> <path d="M1787.642,3809.5432c-6.0118,6.0129-3.0189,19.6702-2.7186,19.0696c5.668,17.8599,34.2816,17.6074,31.6208-0.2778 C1814.0665,3811.6826,1796.757,3800.4282,1787.642,3809.5432z"/> </g> </svg>